<?xml version="1.0" encoding="utf-8"?>
<!-- Generator: Adobe Illustrator 25.3.0, SVG Export Plug-In . SVG Version: 6.00 Build 0)  -->
<svg version="1.1" id="Layer_1" xmlns="http://www.w3.org/2000/svg" xmlns:xlink="http://www.w3.org/1999/xlink" x="0px" y="0px"
	 viewBox="0 0 215.78 175.68" style="enable-background:new 0 0 215.78 175.68;" xml:space="preserve">
<style type="text/css">
	.st0{fill:none;stroke:#971914;stroke-width:1.7959;stroke-miterlimit:10;}
	.st1{fill:#971914;}
	.st2{fill:#FFFFFF;}
	.st3{fill:none;}
	.st4{fill:none;stroke:#FFFFFF;stroke-width:0.1497;stroke-miterlimit:10;}
	.st5{fill:none;stroke:#FFFFFF;stroke-width:5.1047;stroke-miterlimit:10;}
	.st6{fill:none;stroke:#FFFFFF;stroke-miterlimit:10;}
</style>
<g>
	<path class="st0" d="M-263.29,220.04c0,0-65.72,2.97-34.84,37.03"/>
	<path class="st1" d="M-234.35,302.32c-0.77,0.37-1.56,0.71-2.37,1.03c-0.2,0.08-0.41,0.13-0.82,0.26c1.38-1.05,2.63-1.92,3.79-2.88
		c5.48-4.51,9.32-10.18,11.77-16.82c2.2-5.97,3.06-12.15,3.04-18.48c0-1.14,0-2.29,0-3.49c0-0.13,0.19-0.16,0.23-0.04
		c0.29,0.87,0.57,1.74,0.82,2.61c0-0.74,0-1.49,0-2.27c0-0.13,0.19-0.16,0.23-0.04c0.1,0.29,0.19,0.58,0.28,0.86
		c-0.35-3.54-0.9-6.94-1.55-10.13c-0.21-0.54-0.43-1.08-0.64-1.62c-1.23-3.12-2.55-6.24-4.18-9.17c-2.99-5.37-7.34-9.6-12.16-13.35
		c-5.79-4.51-11.96-8.21-19.4-9.27c-0.12-0.02-0.35-0.11-0.54-0.21c-0.01-0.01-0.02-0.01-0.03-0.02l-12.66,4.53
		c0.11-0.01,0.22-0.02,0.33-0.03c-0.18,0.09-0.35,0.14-0.47,0.24c-5,3.94-9.85,8.06-14.17,12.74c-4.07,4.41-7.77,9.11-10.6,14.43
		c-0.76,1.43-1.35,2.96-2.02,4.53c-0.84,3.09-1.41,6.51-1.69,8.37c0.04,0.62,0.2,1.23,0.56,1.8c0.54,0.84,1.29,0.8,1.69-0.11
		c0.27-0.61,0.43-1.27,0.64-1.91c0.33-1.04,0.37-1.04,1.42-0.84c1.47,0.28,2.94,0.57,4.42,0.79c5.03,0.76,9.9,0.33,14.5-2
		c0.41-0.21,3.4-1.86,5.58-4.49c1.06-1.29,2.43-3.66,3.61-7.44c0.28-0.9,0.37-1.86,0.49-2.79c0.07-0.57,0.1-1.2-0.57-1.48
		c-0.66-0.28-1.36-0.12-1.78,0.39c-0.54,0.66-1.24,1.37-1.34,2.2c-0.11,0.93-0.02,0.81-0.49,3.13c-1.05,5.11-4.53,7.51-9.26,8.56
		c-3.92,0.87-7.83,0.71-11.67-0.52c-0.98-0.31-1.92-0.75-2.94-1.16c-0.06-0.02-0.09-0.09-0.07-0.15c0.14-0.38,0.25-0.7,0.38-1
		c2.05-4.81,4.89-9.13,8.01-13.29c5.98-7.95,13.37-14.27,22-19.18c1.15-0.65,2.24-1.4,3.38-2.07c0.21-0.13,0.52-0.23,0.75-0.19
		c11.76,2.07,21.29,8.01,29.11,16.86c2.97,3.36,4.82,7.42,6.54,11.52c2.39,5.68,3.22,11.59,2.86,17.71
		c-0.5,8.41-3.03,16.09-8.06,22.94c-3.86,5.26-8.88,8.95-14.75,11.6c-3.67,1.66-7.53,2.75-11.38,3.86c-0.27,0.08-0.54,0.16-0.8,0.27
		c-0.12,0.05-0.09,0.22,0.04,0.23c3.78,0.21,7.48-0.32,11.17-1.05c0.06-0.01,0.12,0.03,0.14,0.09l0,0c0.01,0.06-0.02,0.12-0.08,0.14
		c-1.32,0.34-2.63,0.75-3.96,1.01c-4.58,0.89-9.11,0.81-13.38-1.27c-3.76-1.82-6.44-4.74-7.93-8.66c-0.33-0.87-0.35-1.85-0.52-2.78
		c-0.09-0.49,0-1.15-0.68-1.26c-0.7-0.12-1.03,0.42-1.26,0.96c-0.13,0.3-0.24,0.6-0.33,0.91l2.09,5.77
		c2.91,4.11,6.39,7.33,11.07,8.94c1.03,0.21,2.16,0.41,3.33,0.58c6.47-1.86,12.95-4.2,18.63-7.13
		C-235.45,303.13-234.89,302.72-234.35,302.32z M-291.63,261.31c1.84,0.49,3.71,0.82,5.64,0.88c-0.97-0.02-1.93-0.07-2.89-0.17
		c1.29,0.26,2.6,0.43,3.93,0.47c-2.19-0.05-4.36-0.22-6.42-0.9c-1.05-0.26-2.07-0.63-3.06-1.15c0.44,0.16,0.89,0.3,1.34,0.45
		c-0.1-0.05-0.19-0.09-0.29-0.15C-292.8,260.94-292.21,261.14-291.63,261.31z"/>
	<g>
		<path class="st2" d="M-256.51,204.37c-0.38,1.03-0.73,2.06-1.15,3.07c-0.08,0.19-0.43,0.36-0.67,0.37
			c-2.16,0.14-4.33,0.18-6.49,0.37c-8.56,0.78-16.76,2.95-24.6,6.47c-0.36,0.16-0.72,0.31-1.2,0.51
			C-286.6,210.39-265.22,203.67-256.51,204.37z"/>
		<path class="st2" d="M-208.74,256.85c-1.09-6.94-3.47-13.39-7.07-19.4c-2.41-4.04-5.4-7.59-8.94-10.68
			c-2.86-2.5-5.91-4.76-9.19-6.66c-3.23-1.87-6.58-3.54-9.9-5.25c-0.72-0.37-1.54-0.55-2.32-0.8c-0.05-0.02-0.11,0.01-0.14,0.06
			l-0.05,0.1c-0.03,0.05-0.01,0.11,0.04,0.15c0.81,0.58,1.61,1.17,2.45,1.72c3.63,2.37,7.31,4.67,10.9,7.11
			c5.22,3.54,9.8,7.78,13.41,12.99c4.83,6.96,7.91,14.59,8.38,23.11c0.18,3.25,0.07,6.54-0.19,9.78c-0.28,3.6-1.55,7-2.88,10.33
			c-0.67,1.68-1.49,3.3-2.26,4.93c-0.06,0.12-0.25,0.06-0.22-0.07c0.15-0.8,0.38-1.58,0.54-2.36c1.27-6.24,1.08-12.5-0.59-18.6
			c-1.16-4.24-2.82-8.35-4.44-12.45c-1.23-3.12-2.55-6.24-4.18-9.17c-2.99-5.37-7.34-9.6-12.16-13.35
			c-5.79-4.51-11.96-8.21-19.4-9.27c-0.12-0.02-0.35-0.11-0.54-0.21c-0.2-0.1-0.28-0.34-0.2-0.54l1.24-2.98
			c0-0.01,0.01-0.01,0.01-0.02c0.78-1.3,2.12-1.82,3.37-2.48c1.23-0.65,2.55-1.2,3.63-2.05c1.72-1.35,3.33-2.85,4.89-4.38
			c1.76-1.73,3.36-3.62,5.13-5.34c1.53-1.49,3.21-2.82,5.56-2.63c0.07,0.01,0.17,0,0.22-0.04c0.21-0.18,0.54-0.36,0.57-0.58
			c0.03-0.22-0.17-0.57-0.38-0.72c-0.25-0.18-0.6-0.24-0.91-0.27c-1.3-0.15-2.52,0.1-3.69,0.7c-1.8,0.92-3.3,2.23-4.69,3.67
			c-1.73,1.8-3.43,3.62-5.15,5.42c-0.12,0.13-0.25,0.26-0.38,0.38c-0.1,0.1-0.26-0.03-0.18-0.15c2.61-3.89,5.61-7.44,9.21-10.46
			c0.08-0.07,0.03-0.2-0.07-0.21c-0.21,0-0.4,0.01-0.59,0.03c-2.47,0.28-4.84,0.82-6.57,2.81c-1.72,1.97-3.41,3.97-5.1,5.96
			c-0.41,0.49-0.78,1.02-1.24,1.63c-0.01-0.22-0.04-0.29-0.02-0.35c1.18-3.82,3.34-7.02,6.21-9.75c0.18-0.17,0.4-0.29,0.64-0.36
			c2.68-0.75,5.38-1.41,8.18-1.57c2.11-0.12,4.24-0.24,6.33-0.54c4.57-0.66,8.06-3.23,11.16-6.49c2.47-2.6,4.96-5.19,7.53-7.69
			c0.87-0.85,2.02-1.41,3.04-2.11c0.22-0.15,0.53-0.28,0.64-0.49c0.13-0.25,0.17-0.63,0.06-0.87c-0.06-0.13-0.53-0.16-0.78-0.1
			c-0.3,0.08-0.57,0.31-0.83,0.49c-2.84,1.93-5.28,4.32-7.66,6.79c-2.3,2.39-4.54,4.84-7.31,6.72c-2.43,1.64-6.76,2.79-9.45,2.42
			c-0.11-0.01-0.14-0.16-0.04-0.22c0.72-0.42,1.4-0.82,2.09-1.2c2.65-1.45,5.21-3.02,7.46-5.08c1.72-1.58,3.6-2.99,5.46-4.42
			c1.87-1.44,3.81-2.8,5.68-4.25c0.35-0.27,0.54-0.79,0.68-1.24c0.04-0.13-0.32-0.51-0.55-0.57c-0.56-0.14-1.13-0.06-1.52,0.49
			c-0.05,0.07-0.09,0.13-0.15,0.19c-0.54,0.6-1.01,1.3-1.64,1.79c-2.17,1.68-4.4,3.27-6.59,4.91c-0.88,0.66-1.65,1.47-2.57,2.05
			c-2.7,1.7-5.5,3.24-8.17,4.98c-2.38,1.54-4.97,2.51-7.7,3.18c-0.07,0.02-0.14,0.02-0.24,0.03c-0.12,0.01-0.17-0.14-0.08-0.21
			c2.22-1.65,4.61-2.6,7-3.57c0.11-0.05,0.09-0.22-0.03-0.23c-0.42-0.03-0.84-0.03-1.25-0.01c-0.28,0.01-0.55,0.05-0.82,0.12
			c-4.74,1.14-8.58,3.78-11.95,7.18c-2.92,2.94-4.7,6.55-6,10.41c-1.18,3.5-3.18,6.68-5.87,9.21c-0.66,0.62-1.03,0.87-1.82,0.49
			c-1.28-0.6-2.62-1.1-3.98-1.5c-6.67-1.93-13.39-1.89-20.12-0.42c-7.89,1.73-14.62,5.34-19.29,12.19
			c-2.16,3.17-3.61,6.68-3.92,10.47c-0.62,7.58,1.81,14.25,6.88,19.91c1.38,1.54,2.92,2.95,4.84,3.83c0.46,0.21,0.61,0.44,0.54,0.96
			c-0.14,1.12-0.15,2.25,0.5,3.26c0.54,0.84,1.29,0.8,1.69-0.11c0.27-0.61,0.43-1.27,0.64-1.91c0.33-1.04,0.37-1.04,1.42-0.84
			c1.47,0.28,2.94,0.57,4.42,0.79c5.03,0.76,9.9,0.33,14.5-2c0.41-0.21,3.4-1.86,5.58-4.49c1.06-1.29,2.43-3.66,3.61-7.44
			c0.28-0.9,0.37-1.86,0.49-2.79c0.07-0.57,0.1-1.2-0.57-1.48c-0.66-0.28-1.36-0.12-1.78,0.39c-0.54,0.66-1.24,1.37-1.34,2.2
			c-0.11,0.93-0.02,0.81-0.49,3.13c-1.05,5.11-4.53,7.51-9.26,8.56c-3.92,0.87-7.83,0.71-11.67-0.52c-0.98-0.31-1.92-0.75-2.94-1.16
			c-0.06-0.02-0.09-0.09-0.07-0.15c0.14-0.38,0.25-0.7,0.38-1c2.05-4.81,4.89-9.13,8.01-13.29c5.98-7.95,13.37-14.27,22-19.18
			c1.15-0.65,2.24-1.4,3.38-2.07c0.21-0.13,0.52-0.23,0.75-0.19c11.76,2.07,21.29,8.01,29.11,16.86c2.97,3.36,4.82,7.42,6.54,11.52
			c2.39,5.68,3.22,11.59,2.86,17.71c-0.5,8.41-3.03,16.09-8.06,22.94c-3.86,5.26-8.88,8.95-14.75,11.6
			c-3.67,1.66-7.53,2.75-11.38,3.86c-0.27,0.08-0.54,0.16-0.8,0.27c-0.12,0.05-0.09,0.22,0.04,0.23c3.78,0.21,7.48-0.32,11.17-1.05
			c0.06-0.01,0.12,0.03,0.14,0.09l0,0c0.01,0.06-0.02,0.12-0.08,0.14c-1.32,0.34-2.63,0.75-3.96,1.01
			c-4.58,0.89-9.11,0.81-13.38-1.27c-3.76-1.82-6.44-4.74-7.93-8.66c-0.33-0.87-0.35-1.85-0.52-2.78c-0.09-0.49,0-1.15-0.68-1.26
			c-0.7-0.12-1.03,0.42-1.26,0.96c-0.91,2.13-0.96,4.33-0.34,6.52c0.29,1.04,0.74,2.04,1.16,3.05c0.05,0.12-0.1,0.22-0.19,0.13
			c-1.43-1.33-2.73-2.82-3.86-4.46c-2.52-3.66-3.6-7.68-3.09-12.11c0.14-1.19,0.18-2.38,0.25-3.58c0.01-0.17-0.01-0.34-0.03-0.51
			c-0.01-0.12-0.17-0.14-0.22-0.03c-1.95,4.38-2.65,8.82-0.83,13.41c1.63,4.09,4.47,7.22,7.99,9.77c2.79,2.02,5.82,3.57,9.18,4.4
			c0.12,0.03,0.23,0.08,0.33,0.16c-2.29,0.05-4.54-0.18-6.76-0.72c-6.44-1.56-10.58-5.79-13.09-11.68c-1.45-3.4-1.31-7.01-0.58-10.6
			c0.72-3.56,2.27-6.79,3.87-10.01c1.01-2.03,3.14-3.85,3.02-6.12c-0.02-0.33-0.94-3.23-1.54-1.7c-1.23,3.15-2.76,4.1-4.18,7.17
			c-1.85,4-3.21,8.15-3.55,12.6c-0.61,8,3.48,15.24,10.73,18.8c0.18,0.09,0.35,0.17,0.53,0.26c-0.09,0.25-0.06,0.17-0.16,0.42
			c-2.34-0.59-4.7-1.15-7.02-1.81c-6.3-1.78-12.23-4.37-17.62-8.16c-6.77-4.75-11.81-10.95-15.41-18.35
			c-2.22-4.57-3.61-9.4-4.19-14.44c-0.61-5.25-0.29-10.47,1.05-15.59c0.58-2.22,1.34-4.38,2.03-6.57c0.03-0.11,0.18-0.11,0.22-0.01
			c0.48,1.34,0.79,2.63,1.25,3.87c0.42,1.13,1.1,2.26,1.71,2.98c0.09,0.11,0.26-0.01,0.19-0.13c-1.79-3.31-2.46-6.81-1.81-10.52
			c0.37-2.14,0.9-4.25,1.41-6.47c0.03-0.13-0.15-0.2-0.22-0.08c-0.44,0.82-0.87,1.6-1.2,2.42c-0.51,1.29-0.81,2.67-1.32,3.96
			c-0.96,2.43-2.1,4.79-2.98,7.25c-2.29,6.4-2.99,13-2.12,19.74c0.9,6.94,3.29,13.37,6.84,19.39c6.18,10.48,15.13,17.65,26.34,22.16
			c6.79,2.73,13.93,3.56,21.15,3.91c6.36,0.31,12.58-0.58,18.65-2.51c6.89-2.19,13.21-5.46,18.91-9.91
			c3.14-2.45,5.86-5.33,8.37-8.42c3.13-3.85,5.71-8.03,7.68-12.6C-208.8,272.13-207.51,264.68-208.74,256.85z M-303.3,226.83
			c3.58-4.09,8.11-6.72,13.22-8.38c5.65-1.84,11.43-2.46,17.34-1.74c0.39,0.05,0.78,0.11,1.18,0.19c0.14,0.03,0.12,0.23-0.02,0.23
			c-13.14,0.28-24.64,4.61-34.2,13.67c-0.09,0.09-0.24-0.02-0.19-0.14C-305.28,229.31-304.35,228.03-303.3,226.83z M-298.42,259.33
			c-4.48-1.68-8.46-6-9.42-10.5c-0.03-0.12,0.14-0.19,0.21-0.09c0.19,0.27,0.35,0.5,0.5,0.74c2.13,3.42,5.03,6.08,8.35,8.3
			c0.61,0.4,0.81,0.83,0.51,1.49C-298.3,259.32-298.37,259.35-298.42,259.33z M-286.59,262.04c-2.92-0.07-5.8-0.35-8.44-1.75
			C-292.29,261.25-289.5,261.96-286.59,262.04z M-268,221.05c-3.01,0.69-6.02,1.4-9.05,1.96c-3.21,0.59-6.44,1.03-9.66,1.53
			c-0.05,0.01-0.09,0.03-0.12,0.18c5.6-0.46,11.2-0.91,16.97-1.39c-0.18,0.09-0.35,0.14-0.47,0.24c-5,3.94-9.85,8.06-14.17,12.74
			c-4.07,4.41-7.77,9.11-10.6,14.43c-0.85,1.6-1.49,3.32-2.26,5.09c-0.03,0.07-0.11,0.09-0.17,0.05c-4.45-2.81-7.68-6.6-8.64-11.91
			c-0.85-4.74,0.58-8.92,3.79-12.5c2.49-2.78,5.55-4.76,8.9-6.33c0.95-0.44,1.91-0.86,2.89-1.23c0.14-0.05,0.22,0.14,0.09,0.21
			c-0.35,0.18-0.7,0.37-1.04,0.56c-3.4,1.86-6.32,4.28-8.54,7.46c-2.91,4.16-3.84,8.79-3.16,13.79c0.45,3.32,1.82,6.1,4.23,8.32
			c0.1,0.1,0.26-0.04,0.17-0.15c-0.26-0.36-0.52-0.72-0.77-1.1c-2.37-3.57-2.63-7.56-2.29-11.65c0.38-4.66,2.72-8.36,6.01-11.46
			c5.91-5.56,12.97-8.64,21.06-9.3c2.71-0.22,5.42-0.39,8.13-0.57c0.14-0.01,0.29,0,0.43,0c0.05,0,0.09,0.03,0.11,0.07l0.01,0.03
			c0.02,0.06,0,0.12-0.06,0.15C-266.8,220.56-267.37,220.91-268,221.05z M-270.81,300.6c2.98,4.25,6.56,7.56,11.43,9.16
			c0.14,0.05,0.09,0.25-0.06,0.23c-5.23-0.9-10.55-4.03-11.58-9.3C-271.04,300.56-270.88,300.49-270.81,300.6z M-218.05,283.52
			c-0.95,4.19-3.16,7.71-6.13,10.78c-3.76,3.88-8.08,6.93-13.14,8.9c-0.2,0.08-0.41,0.13-0.82,0.26c1.38-1.05,2.63-1.92,3.79-2.88
			c5.48-4.51,9.32-10.18,11.77-16.82c2.2-5.97,3.06-12.15,3.04-18.48c0-1.14,0-2.29,0-3.49c0-0.13,0.19-0.16,0.23-0.04
			c0.89,2.68,1.66,5.29,1.96,8.03C-216.85,274.39-217.02,278.99-218.05,283.52z"/>
	</g>
	<path class="st3" d="M-217.89,262.24c0,0.78,0,1.53,0,2.27c0.34,1.15,0.63,2.3,0.85,3.46c-0.06-1.66-0.18-3.29-0.34-4.91
		c-0.09-0.29-0.19-0.57-0.28-0.86C-217.7,262.07-217.89,262.1-217.89,262.24z"/>
	<path class="st3" d="M-284.94,262.49c-1.34-0.04-2.64-0.21-3.93-0.47c-0.84-0.09-1.67-0.22-2.49-0.42
		C-289.3,262.27-287.14,262.44-284.94,262.49z"/>
	<path class="st3" d="M-293.09,260.89c0.48,0.15,0.97,0.3,1.46,0.43c-0.59-0.18-1.17-0.37-1.75-0.57
		C-293.28,260.79-293.19,260.84-293.09,260.89z"/>
	<path class="st3" d="M-216.75,269.93c0.5,4.62,0.32,9.22-0.7,13.75c-0.86,3.8-2.76,7.05-5.32,9.9c-3.22,3.91-7.88,7.22-13.27,9.99
		c-0.15,0.11-0.3,0.22-0.45,0.34c0.41-0.13,0.62-0.19,0.82-0.26c5.06-1.96,9.38-5.02,13.14-8.9c2.97-3.06,5.18-6.58,6.13-10.78
		c1.02-4.53,1.2-9.13,0.7-13.75c-0.26-2.44-0.91-4.78-1.68-7.16c0.16,1.61,0.27,3.25,0.34,4.91
		C-216.92,268.62-216.82,269.27-216.75,269.93z"/>
	<path class="st3" d="M-222.77,293.58c-0.26,0.29-0.53,0.59-0.81,0.87c-3.16,3.26-6.72,5.93-10.77,7.87
		c-0.54,0.4-1.1,0.81-1.68,1.25C-230.65,300.79-225.99,297.49-222.77,293.58z"/>
	<path class="st3" d="M-263.49,307.6c0.01,0.01,0.02,0.01,0.02,0.02C-263.47,307.61-263.48,307.61-263.49,307.6z"/>
	<path class="st3" d="M-268.82,302.6c0.04,0.05,0.08,0.1,0.12,0.15C-268.74,302.69-268.78,302.64-268.82,302.6z"/>
	<path class="st3" d="M-264.93,306.54c0.01,0.01,0.03,0.02,0.04,0.03C-264.91,306.56-264.92,306.55-264.93,306.54z"/>
	<path class="st3" d="M-264.58,306.82c0.01,0.01,0.02,0.02,0.03,0.03C-264.56,306.83-264.57,306.83-264.58,306.82z"/>
	<path class="st3" d="M-264.22,307.09c0.01,0.01,0.02,0.01,0.03,0.02C-264.2,307.1-264.21,307.09-264.22,307.09z"/>
	<path class="st3" d="M-269.12,302.21c0.04,0.06,0.09,0.11,0.13,0.17C-269.03,302.33-269.08,302.27-269.12,302.21z"/>
	<path class="st3" d="M-263.86,307.35c0.01,0.01,0.02,0.01,0.03,0.02C-263.84,307.36-263.85,307.35-263.86,307.35z"/>
	<path class="st3" d="M-265.28,306.25c0.01,0.01,0.03,0.02,0.04,0.04C-265.25,306.28-265.26,306.27-265.28,306.25z"/>
	<path class="st3" d="M-266.62,305.03c0.02,0.02,0.04,0.04,0.06,0.06C-266.58,305.07-266.6,305.05-266.62,305.03z"/>
	<path class="st3" d="M-267.9,303.69c0.03,0.03,0.06,0.07,0.09,0.1C-267.84,303.76-267.87,303.72-267.9,303.69z"/>
	<path class="st3" d="M-266.29,305.35c0.02,0.02,0.04,0.04,0.06,0.06C-266.25,305.39-266.27,305.37-266.29,305.35z"/>
	<path class="st3" d="M-267.27,304.38c0.03,0.03,0.05,0.05,0.08,0.08C-267.22,304.43-267.24,304.4-267.27,304.38z"/>
	<path class="st3" d="M-268.51,302.97c0.04,0.04,0.07,0.09,0.11,0.13C-268.44,303.06-268.48,303.01-268.51,302.97z"/>
	<path class="st3" d="M-265.62,305.96c0.02,0.01,0.03,0.03,0.05,0.04C-265.59,305.99-265.61,305.97-265.62,305.96z"/>
	<path class="st3" d="M-265.96,305.66c0.02,0.02,0.04,0.03,0.05,0.05C-265.92,305.69-265.94,305.67-265.96,305.66z"/>
	<path class="st3" d="M-268.21,303.33c0.03,0.04,0.06,0.08,0.1,0.11C-268.14,303.41-268.17,303.37-268.21,303.33z"/>
	<path class="st3" d="M-261.56,308.74C-261.56,308.74-261.56,308.74-261.56,308.74C-261.56,308.74-261.56,308.74-261.56,308.74z"/>
	<path class="st3" d="M-267.59,304.04c0.03,0.03,0.06,0.06,0.08,0.09C-267.53,304.1-267.56,304.07-267.59,304.04z"/>
	<path class="st3" d="M-270.12,300.87c0.09,0.13,0.18,0.26,0.28,0.39C-269.93,301.13-270.03,301-270.12,300.87z"/>
	<path class="st3" d="M-266.88,304.78c-0.02-0.02-0.05-0.05-0.07-0.07C-266.92,304.73-266.9,304.76-266.88,304.78z"/>
	<path class="st3" d="M-261.16,308.94C-261.16,308.94-261.15,308.94-261.16,308.94C-261.15,308.94-261.16,308.94-261.16,308.94z"/>
	<path class="st3" d="M-259.91,309.49C-259.91,309.49-259.91,309.49-259.91,309.49C-259.91,309.49-259.91,309.49-259.91,309.49z"/>
	<path class="st3" d="M-261.96,308.53C-261.96,308.53-261.95,308.53-261.96,308.53C-261.95,308.53-261.96,308.53-261.96,308.53z"/>
	<path class="st3" d="M-260.75,309.13C-260.75,309.14-260.75,309.14-260.75,309.13C-260.75,309.14-260.75,309.14-260.75,309.13z"/>
	<path class="st3" d="M-260.33,309.32C-260.33,309.32-260.33,309.32-260.33,309.32C-260.33,309.32-260.33,309.32-260.33,309.32z"/>
	<path class="st3" d="M-262.74,308.08c0.01,0,0.01,0.01,0.02,0.01C-262.73,308.09-262.73,308.09-262.74,308.08z"/>
	<path class="st3" d="M-269.42,301.82c0.05,0.06,0.1,0.13,0.14,0.19C-269.33,301.95-269.37,301.89-269.42,301.82z"/>
	<path class="st3" d="M-263.12,307.85c0.01,0,0.01,0.01,0.02,0.01C-263.1,307.85-263.11,307.85-263.12,307.85z"/>
	<path class="st3" d="M-262.35,308.31c0,0,0.01,0.01,0.01,0.01C-262.34,308.32-262.35,308.31-262.35,308.31z"/>
	<path class="st3" d="M-269.74,301.4c0.06,0.08,0.12,0.16,0.17,0.24C-269.62,301.56-269.68,301.48-269.74,301.4z"/>
	<path class="st3" d="M-218.57,285.41c-0.7,2.98-2.16,5.69-4.19,8.17c2.56-2.86,4.46-6.1,5.32-9.9c1.02-4.53,1.2-9.13,0.7-13.75
		c-0.07-0.66-0.17-1.31-0.29-1.96C-216.82,273.68-217.21,279.61-218.57,285.41z"/>
	<path class="st3" d="M-223.58,294.45c0.28-0.29,0.55-0.58,0.81-0.87c2.03-2.47,3.49-5.19,4.19-8.17c1.37-5.8,1.75-11.73,1.53-17.44
		c-0.22-1.16-0.51-2.31-0.85-3.46c0,0.41,0,0.82,0,1.22c0.02,6.33-0.84,12.51-3.04,18.48c-2.45,6.65-6.28,12.31-11.77,16.82
		c-0.53,0.44-1.08,0.86-1.66,1.29C-230.3,300.39-226.74,297.71-223.58,294.45z"/>
	<path class="st3" d="M-267.81,303.79c0.07,0.08,0.15,0.16,0.22,0.24C-267.66,303.95-267.73,303.87-267.81,303.79z"/>
	<path class="st3" d="M-268.11,303.45c0.07,0.08,0.14,0.16,0.21,0.24C-267.97,303.61-268.04,303.53-268.11,303.45z"/>
	<path class="st3" d="M-269.84,301.26c0.03,0.05,0.07,0.1,0.11,0.14C-269.77,301.36-269.81,301.31-269.84,301.26z"/>
	<path class="st3" d="M-269.56,301.64c0.05,0.06,0.09,0.12,0.14,0.18C-269.47,301.76-269.52,301.7-269.56,301.64z"/>
	<path class="st3" d="M-268.99,302.38c0.06,0.07,0.11,0.14,0.17,0.21C-268.88,302.52-268.93,302.45-268.99,302.38z"/>
	<path class="st3" d="M-269.28,302.01c0.05,0.07,0.1,0.13,0.16,0.2C-269.17,302.15-269.23,302.08-269.28,302.01z"/>
	<path class="st3" d="M-268.41,303.1c0.07,0.08,0.13,0.16,0.2,0.24C-268.27,303.26-268.34,303.18-268.41,303.1z"/>
	<path class="st3" d="M-268.7,302.74c0.06,0.08,0.12,0.15,0.19,0.23C-268.58,302.89-268.64,302.82-268.7,302.74z"/>
	<path class="st3" d="M-263.83,307.37c0.11,0.08,0.23,0.16,0.34,0.23C-263.6,307.52-263.72,307.45-263.83,307.37z"/>
	<path class="st3" d="M-261.55,308.74c0.13,0.07,0.26,0.13,0.4,0.2C-261.29,308.88-261.42,308.81-261.55,308.74z"/>
	<path class="st3" d="M-258.78,309.9c-0.09-0.03-0.18-0.06-0.27-0.09c0,0,0,0,0,0C-258.96,309.84-258.87,309.88-258.78,309.9z"/>
	<path class="st3" d="M-267.5,304.13c0.08,0.08,0.16,0.17,0.23,0.25C-267.35,304.29-267.42,304.21-267.5,304.13z"/>
	<path class="st3" d="M-262.34,308.32c0.13,0.07,0.25,0.14,0.38,0.21C-262.09,308.46-262.21,308.39-262.34,308.32z"/>
	<path class="st3" d="M-262.72,308.09c0.12,0.07,0.25,0.15,0.37,0.22C-262.47,308.24-262.6,308.17-262.72,308.09z"/>
	<path class="st3" d="M-261.95,308.53c0.13,0.07,0.26,0.14,0.39,0.2C-261.69,308.67-261.82,308.6-261.95,308.53z"/>
	<path class="st3" d="M-259.05,309.81c-0.29-0.1-0.58-0.21-0.86-0.32C-259.63,309.61-259.34,309.71-259.05,309.81
		C-259.05,309.81-259.05,309.81-259.05,309.81z"/>
	<path class="st3" d="M-260.33,309.32c0.14,0.06,0.28,0.12,0.42,0.17C-260.05,309.44-260.19,309.38-260.33,309.32z"/>
	<path class="st3" d="M-260.75,309.14c0.14,0.06,0.27,0.12,0.41,0.18C-260.47,309.26-260.61,309.2-260.75,309.14z"/>
	<path class="st3" d="M-261.15,308.94c0.13,0.06,0.27,0.13,0.4,0.19C-260.88,309.07-261.02,309.01-261.15,308.94z"/>
	<path class="st3" d="M-266.62,305.03c-0.09-0.08-0.17-0.17-0.26-0.25C-266.79,304.86-266.71,304.95-266.62,305.03z"/>
	<path class="st3" d="M-263.1,307.86c0.12,0.08,0.24,0.15,0.36,0.22C-262.86,308.01-262.98,307.93-263.1,307.86z"/>
	<path class="st3" d="M-266.24,305.41c0.09,0.09,0.18,0.17,0.27,0.25C-266.05,305.57-266.14,305.49-266.24,305.41z"/>
	<path class="st3" d="M-265.57,306c0.1,0.08,0.2,0.17,0.29,0.25C-265.38,306.17-265.48,306.09-265.57,306z"/>
	<path class="st3" d="M-265.91,305.71c0.09,0.09,0.19,0.17,0.28,0.25C-265.72,305.88-265.81,305.79-265.91,305.71z"/>
	<path class="st3" d="M-263.47,307.62c0.12,0.08,0.23,0.15,0.35,0.23C-263.23,307.77-263.35,307.69-263.47,307.62z"/>
	<path class="st3" d="M-266.56,305.1c0.09,0.09,0.18,0.17,0.26,0.25C-266.38,305.27-266.47,305.18-266.56,305.1z"/>
	<path class="st3" d="M-267.19,304.46c0.08,0.08,0.16,0.17,0.25,0.25C-267.03,304.63-267.11,304.54-267.19,304.46z"/>
	<path class="st3" d="M-264.54,306.84c0.11,0.08,0.22,0.16,0.32,0.24C-264.33,307.01-264.44,306.93-264.54,306.84z"/>
	<path class="st3" d="M-264.19,307.11c0.11,0.08,0.22,0.16,0.33,0.24C-263.97,307.27-264.08,307.19-264.19,307.11z"/>
	<path class="st3" d="M-265.24,306.29c0.1,0.08,0.2,0.17,0.3,0.25C-265.03,306.46-265.13,306.37-265.24,306.29z"/>
	<path class="st3" d="M-264.89,306.57c0.1,0.08,0.21,0.17,0.31,0.25C-264.68,306.74-264.79,306.65-264.89,306.57z"/>
	<path class="st3" d="M-258.83,310.13c0.14,0.02,0.19-0.18,0.06-0.23c-0.09-0.03-0.18-0.06-0.27-0.09
		c-2.66-0.55-4.71-1.21-5.21-1.99c0.5,0.78,2.55,1.45,5.21,1.99c-0.29-0.1-0.58-0.21-0.86-0.32c0,0,0,0,0,0
		c-0.14-0.06-0.28-0.11-0.42-0.17c0,0,0,0,0,0c-0.14-0.06-0.28-0.12-0.41-0.18c0,0,0,0,0,0c-0.14-0.06-0.27-0.13-0.4-0.19
		c0,0,0,0,0,0c-0.13-0.06-0.26-0.13-0.4-0.2c0,0-0.01,0-0.01,0c-0.13-0.07-0.26-0.14-0.39-0.2c0,0-0.01,0-0.01-0.01
		c-0.13-0.07-0.25-0.14-0.38-0.21c0,0-0.01-0.01-0.01-0.01c-0.12-0.07-0.25-0.14-0.37-0.22c-0.01,0-0.01-0.01-0.02-0.01
		c-0.12-0.07-0.24-0.15-0.36-0.22c-0.01,0-0.01-0.01-0.02-0.01c-0.12-0.08-0.23-0.15-0.35-0.23c-0.01-0.01-0.02-0.01-0.02-0.02
		c-0.11-0.08-0.23-0.16-0.34-0.23c-0.01-0.01-0.02-0.01-0.03-0.02c-0.11-0.08-0.22-0.16-0.33-0.24c-0.01-0.01-0.02-0.01-0.03-0.02
		c-0.11-0.08-0.22-0.16-0.32-0.24c-0.01-0.01-0.02-0.02-0.03-0.03c-0.11-0.08-0.21-0.16-0.31-0.25c-0.01-0.01-0.03-0.02-0.04-0.03
		c-0.1-0.08-0.2-0.16-0.3-0.25c-0.01-0.01-0.03-0.02-0.04-0.04c-0.1-0.08-0.2-0.17-0.29-0.25c-0.02-0.01-0.03-0.03-0.05-0.04
		c-0.1-0.08-0.19-0.17-0.28-0.25c-0.02-0.02-0.04-0.03-0.05-0.05c-0.09-0.08-0.18-0.17-0.27-0.25c-0.02-0.02-0.04-0.04-0.06-0.06
		c-0.09-0.08-0.18-0.17-0.26-0.25c-0.02-0.02-0.04-0.04-0.06-0.06c-0.09-0.08-0.17-0.17-0.26-0.25c-0.02-0.02-0.05-0.05-0.07-0.07
		c-0.08-0.08-0.16-0.17-0.25-0.25c-0.03-0.03-0.05-0.05-0.08-0.08c-0.08-0.08-0.16-0.17-0.23-0.25c-0.03-0.03-0.06-0.06-0.08-0.09
		c-0.07-0.08-0.15-0.16-0.22-0.24c-0.03-0.03-0.06-0.07-0.09-0.1c-0.07-0.08-0.14-0.16-0.21-0.24c-0.03-0.04-0.06-0.08-0.1-0.11
		c-0.07-0.08-0.13-0.16-0.2-0.24c-0.04-0.04-0.07-0.09-0.11-0.13c-0.06-0.08-0.12-0.15-0.19-0.23c-0.04-0.05-0.08-0.1-0.12-0.15
		c-0.06-0.07-0.11-0.14-0.17-0.21c-0.04-0.06-0.09-0.11-0.13-0.17c-0.05-0.07-0.1-0.13-0.16-0.2c-0.05-0.06-0.1-0.13-0.14-0.19
		c-0.05-0.06-0.09-0.12-0.14-0.18c-0.06-0.08-0.12-0.16-0.17-0.24c-0.04-0.05-0.07-0.1-0.11-0.14c-0.09-0.13-0.19-0.26-0.28-0.39
		l0.46,1.28l-0.46-1.28c-0.03-0.04-0.06-0.08-0.09-0.13c-0.07-0.1-0.24-0.04-0.21,0.09C-269.39,306.1-264.07,309.23-258.83,310.13z"
		/>
	<path class="st4" d="M-291.37,261.59c0.82,0.2,1.65,0.33,2.49,0.42c-0.93-0.19-1.84-0.43-2.75-0.7c-0.49-0.13-0.98-0.27-1.46-0.43
		C-292.52,261.17-291.95,261.4-291.37,261.59z"/>
	<path class="st1" d="M-285.99,262.19c-1.93-0.05-3.8-0.38-5.64-0.88c0.91,0.28,1.83,0.51,2.75,0.7
		C-287.92,262.12-286.96,262.17-285.99,262.19z"/>
	<path class="st1" d="M-294.43,260.44c0.99,0.53,2.01,0.89,3.06,1.15c-0.58-0.19-1.16-0.43-1.72-0.71
		C-293.54,260.75-293.98,260.6-294.43,260.44z"/>
</g>
<g>
	<g>
		<g>
			<g>
				<path class="st2" d="M78.69,94.32c3.24-8.14,7.97-15.79,13.36-22.68c5.65-7.22,12.17-13.93,19.54-19.43
					c3.93-2.93,8.11-5.54,12.55-7.63c1.22-0.58,1.54-2.33,0.9-3.42c-0.73-1.25-2.19-1.47-3.42-0.9c-8.37,3.94-15.87,9.68-22.5,16.08
					c-6.99,6.74-13.17,14.41-18.24,22.69c-2.72,4.45-5.07,9.11-7,13.95c-0.5,1.25,0.55,2.75,1.75,3.08
					C77.04,96.45,78.19,95.58,78.69,94.32L78.69,94.32z"/>
			</g>
		</g>
		<g>
			<g>
				<path class="st2" d="M104.47,78.7c-2.79,9.6-15.33,10.49-23.43,8.55c-4.56-1.09-8.63-3.41-10.98-7.59
					c-2.33-4.15-2.66-9.25-2.14-13.89c0.5-4.46,2.83-8.63,6.13-11.65c2.45-2.23,5.29-3.59,8.47-4.52c3.5-1.01,7.04-1.84,10.57-1.84
					c5.27,0,10.46,0.93,15.45,2.61c2.28,0.77,3.49,1.3,5.63,2.45c2.73,1.47,5.43,3,8.1,4.58c6.51,3.85,13.22,7.86,18.26,13.52
					c3.13,3.52,5.6,7.67,7.41,12.01c1.76,4.22,3.22,8.81,3.39,13.41c0.34,9.27-2.98,17.99-8.64,25.25
					c-2.78,3.57-6.2,7.08-10.41,8.91c-4.36,1.9-9.2,2.94-13.91,3.4c-3.86,0.38-7.9-0.25-11.56-1.51c-3.82-1.32-6.21-3.82-7.9-7.58
					c-0.74-1.64-1.37-3.71-1.06-5.51c0.23-1.33-0.35-2.69-1.75-3.08c-1.2-0.33-2.85,0.41-3.08,1.75c-0.9,5.29,1.58,10.72,5.03,14.64
					c3.06,3.47,7.77,5.04,12.21,5.81c4.94,0.86,9.62,0.48,14.53-0.47c5.35-1.04,10.61-2.86,14.94-6.24
					c4.13-3.23,7.49-7.46,10.25-11.89c2.72-4.35,4.62-9.12,5.57-14.17c0.99-5.25,1.16-10.68-0.13-15.89
					c-1.31-5.28-3.31-10.46-6.08-15.14c-2.51-4.25-5.68-8.14-9.48-11.3c-3.35-2.79-6.98-5.25-10.67-7.57
					c-4.81-3.03-9.76-6.08-14.9-8.53c-5.17-2.47-11.12-3.76-16.8-4.26C92.88,42.56,88.49,43,84,44.04
					c-4.01,0.93-7.79,2.25-11.15,4.67c-4.13,2.97-7.53,7.41-9.03,12.3c-1.59,5.18-1.55,11.51,0.02,16.69
					c1.62,5.34,5.18,9.84,10.21,12.33c5.02,2.48,10.97,3.36,16.53,2.98c5.53-0.38,11.08-2.25,14.93-6.4
					c1.75-1.89,3.05-4.11,3.77-6.58C110.19,76.93,105.36,75.61,104.47,78.7L104.47,78.7z"/>
			</g>
		</g>
	</g>
	<path class="st5" d="M137.43,131.47c-17.62,8.26-57.99,20.97-80.21-21.99c-5.6-10.82-6.74-23.53-2.64-35
		c3.98-11.1,13.06-23.98,33.05-33.72c16.41-7.99,36-6.18,50.5,4.91c18.98,14.52,38.62,39.8,13.94,73.72
		C148.3,124.59,143.25,128.74,137.43,131.47z"/>
	<path class="st6" d="M80.54,101.43"/>
</g>
</svg>
