<?xml version="1.0" encoding="utf-8"?>
<!-- Generator: Adobe Illustrator 25.3.0, SVG Export Plug-In . SVG Version: 6.00 Build 0)  -->
<svg version="1.1" xmlns="http://www.w3.org/2000/svg" xmlns:xlink="http://www.w3.org/1999/xlink" x="0px" y="0px"
	 viewBox="0 0 841.89 595.28" style="enable-background:new 0 0 841.89 595.28;" xml:space="preserve">
<style type="text/css">
	.st0{fill:none;stroke:#960B0B;stroke-width:1.7959;stroke-miterlimit:10;}
	.st1{fill:#960B0B;}
	.st2{fill:#FFFFFF;}
	.st3{fill:none;}
	.st4{fill:none;stroke:#FFFFFF;stroke-width:0.1497;stroke-miterlimit:10;}
</style>
<g id="Layer_1">
	<g>
		<path class="st0" d="M393.44,183.51c0,0-245.96,11.12-130.41,138.59"/>
		<path class="st1" d="M501.74,491.46c-2.89,1.38-5.83,2.67-8.86,3.84c-0.75,0.29-1.53,0.5-3.06,0.99
			c5.18-3.92,9.83-7.18,14.2-10.77c20.52-16.89,34.86-38.09,44.03-62.96c8.24-22.35,11.47-45.47,11.39-69.17
			c-0.01-4.28-0.01-8.56,0-13.07c0-0.5,0.7-0.61,0.85-0.14c1.08,3.27,2.12,6.51,3.07,9.76c0-2.78,0-5.59,0-8.5
			c0-0.5,0.7-0.61,0.85-0.14c0.36,1.08,0.71,2.15,1.05,3.23c-1.3-13.23-3.35-25.98-5.82-37.92c-0.8-2.03-1.6-4.05-2.4-6.08
			c-4.61-11.69-9.53-23.37-15.63-34.32c-11.2-20.11-27.48-35.92-45.52-49.96c-21.67-16.87-44.78-30.71-72.61-34.71
			c-0.45-0.06-1.31-0.39-2.02-0.77c-0.05-0.02-0.09-0.06-0.13-0.08l-47.37,16.95c0.41-0.03,0.82-0.07,1.24-0.1
			c-0.69,0.35-1.3,0.54-1.78,0.91c-18.72,14.74-36.85,30.15-53.05,47.69c-15.24,16.51-29.09,34.09-39.67,54
			c-2.85,5.36-5.05,11.06-7.54,16.94c-3.15,11.56-5.29,24.37-6.33,31.31c0.15,2.33,0.73,4.61,2.1,6.73
			c2.04,3.16,4.82,3.01,6.31-0.41c1-2.3,1.62-4.76,2.39-7.16c1.25-3.88,1.37-3.9,5.3-3.15c5.5,1.05,10.99,2.14,16.52,2.97
			c18.81,2.85,37.05,1.25,54.27-7.48c1.53-0.78,12.74-6.94,20.9-16.81c3.98-4.81,9.11-13.69,13.49-27.85
			c1.04-3.36,1.37-6.95,1.83-10.46c0.28-2.13,0.37-4.49-2.13-5.54c-2.49-1.05-5.07-0.47-6.68,1.47c-2.04,2.47-4.66,5.12-5.03,8.23
			c-0.41,3.47-0.07,3.04-1.84,11.7c-3.92,19.13-16.97,28.1-34.64,32.02c-14.68,3.26-29.31,2.64-43.67-1.93
			c-3.66-1.17-7.18-2.8-10.99-4.33c-0.22-0.09-0.33-0.34-0.25-0.56c0.52-1.42,0.92-2.61,1.41-3.76
			c7.66-17.98,18.29-34.19,29.98-49.74c22.36-29.76,50.06-53.4,82.34-71.8c4.29-2.45,8.4-5.22,12.64-7.75
			c0.8-0.48,1.93-0.85,2.81-0.69c44,7.75,79.7,29.98,108.96,63.08c11.12,12.58,18.03,27.75,24.5,43.12
			c8.95,21.25,12.06,43.38,10.7,66.27c-1.88,31.49-11.33,60.2-30.16,85.86c-14.46,19.7-33.22,33.5-55.21,43.42
			c-13.73,6.2-28.18,10.28-42.6,14.44c-1.01,0.29-2.01,0.6-3,1c-0.43,0.17-0.33,0.82,0.14,0.84c14.14,0.8,28.01-1.21,41.81-3.91
			c0.23-0.05,0.45,0.1,0.51,0.33l0,0.01c0.05,0.23-0.09,0.46-0.31,0.52c-4.94,1.29-9.84,2.81-14.84,3.78
			c-17.14,3.33-34.09,3.02-50.09-4.74c-14.06-6.81-24.1-17.74-29.67-32.42c-1.23-3.25-1.29-6.93-1.96-10.4
			c-0.35-1.84,0.01-4.29-2.56-4.73c-2.62-0.45-3.86,1.57-4.72,3.58c-0.48,1.13-0.89,2.26-1.24,3.4l7.83,21.6
			c10.88,15.38,23.91,27.42,41.44,33.46c3.87,0.8,8.1,1.52,12.46,2.19c24.2-6.96,48.48-15.73,69.73-26.67
			C497.63,494.5,499.72,492.97,501.74,491.46z M287.38,337.98c6.88,1.85,13.89,3.08,21.1,3.28c-3.63-0.09-7.24-0.26-10.8-0.64
			c4.83,0.99,9.72,1.63,14.72,1.77c-8.21-0.19-16.32-0.83-24.04-3.35c-3.92-0.96-7.75-2.34-11.45-4.31
			c1.66,0.58,3.33,1.14,5.01,1.67c-0.36-0.18-0.73-0.35-1.09-0.55C283.01,336.6,285.19,337.31,287.38,337.98z"/>
		<g>
			<path class="st2" d="M418.81,124.84c-1.41,3.86-2.73,7.73-4.3,11.49c-0.3,0.71-1.63,1.34-2.52,1.4
				c-8.09,0.53-16.22,0.66-24.29,1.39c-32.03,2.92-62.72,11.03-92.07,24.23c-1.33,0.6-2.69,1.15-4.49,1.91
				C306.21,147.39,386.22,122.24,418.81,124.84z"/>
			<path class="st2" d="M597.62,321.28c-4.06-25.97-13-50.1-26.47-72.62c-9.04-15.11-20.2-28.4-33.47-39.96
				c-10.72-9.35-22.12-17.83-34.4-24.94c-12.09-6.99-24.62-13.25-37.05-19.63c-2.7-1.39-5.77-2.05-8.7-3
				c-0.2-0.07-0.43,0.02-0.52,0.22l-0.19,0.38c-0.1,0.19-0.04,0.43,0.14,0.55c3.04,2.15,6.04,4.38,9.15,6.42
				c13.59,8.89,27.36,17.5,40.79,26.61c19.54,13.26,36.67,29.11,50.21,48.62c18.08,26.06,29.59,54.61,31.37,86.48
				c0.68,12.16,0.27,24.46-0.7,36.61c-1.07,13.48-5.8,26.19-10.78,38.68c-2.51,6.28-5.56,12.34-8.47,18.46
				c-0.22,0.46-0.92,0.23-0.82-0.27c0.57-3.01,1.41-5.9,2.01-8.84c4.75-23.37,4.03-46.78-2.21-69.62
				c-4.33-15.87-10.56-31.26-16.61-46.6c-4.61-11.69-9.53-23.37-15.63-34.32c-11.2-20.11-27.48-35.92-45.52-49.96
				c-21.67-16.87-44.78-30.71-72.61-34.71c-0.45-0.06-1.31-0.39-2.02-0.77c-0.73-0.38-1.05-1.26-0.73-2.02l4.64-11.14
				c0.01-0.02,0.02-0.04,0.03-0.07c2.93-4.86,7.94-6.82,12.61-9.29c4.61-2.44,9.54-4.5,13.6-7.67c6.44-5.04,12.47-10.67,18.31-16.41
				c6.59-6.47,12.59-13.54,19.21-19.98c5.73-5.58,12-10.56,20.83-9.85c0.27,0.02,0.63,0,0.81-0.16c0.79-0.68,2.02-1.35,2.14-2.17
				c0.12-0.84-0.64-2.14-1.41-2.69c-0.92-0.66-2.24-0.89-3.42-1.03c-4.86-0.56-9.45,0.39-13.81,2.63
				c-6.74,3.46-12.35,8.34-17.55,13.75c-6.47,6.73-12.84,13.55-19.28,20.3c-0.46,0.49-0.94,0.96-1.42,1.43
				c-0.38,0.36-0.96-0.12-0.67-0.56c9.77-14.58,20.98-27.85,34.46-39.16c0.31-0.26,0.13-0.76-0.28-0.77
				c-0.8-0.02-1.51,0.05-2.21,0.13c-9.25,1.04-18.1,3.08-24.58,10.51c-6.43,7.37-12.75,14.84-19.07,22.31
				c-1.55,1.83-2.91,3.82-4.63,6.12c-0.05-0.82-0.14-1.1-0.07-1.33c4.4-14.31,12.51-26.26,23.25-36.51c0.67-0.64,1.5-1.1,2.39-1.35
				c10.04-2.79,20.13-5.28,30.61-5.89c7.91-0.46,15.86-0.89,23.7-2.01c17.11-2.45,30.17-12.1,41.75-24.28
				c9.26-9.73,18.57-19.43,28.2-28.79c3.27-3.18,7.57-5.29,11.4-7.9c0.84-0.57,1.98-1.03,2.39-1.84c0.47-0.93,0.64-2.36,0.23-3.25
				c-0.23-0.49-1.99-0.61-2.91-0.36c-1.12,0.31-2.12,1.14-3.12,1.82c-10.65,7.23-19.77,16.18-28.65,25.4
				c-8.61,8.94-16.99,18.1-27.36,25.14c-9.08,6.16-25.3,10.43-35.38,9.07c-0.41-0.06-0.51-0.61-0.15-0.82
				c2.69-1.56,5.23-3.07,7.82-4.48c9.93-5.42,19.48-11.3,27.91-19.01c6.45-5.9,13.49-11.19,20.43-16.55
				c7-5.41,14.27-10.48,21.25-15.91c1.3-1.01,2.02-2.96,2.54-4.62c0.15-0.48-1.2-1.92-2.05-2.13c-2.11-0.53-4.24-0.23-5.7,1.83
				c-0.18,0.25-0.35,0.49-0.56,0.72c-2.02,2.26-3.77,4.86-6.13,6.69c-8.11,6.27-16.47,12.23-24.67,18.39
				c-3.28,2.46-6.17,5.5-9.62,7.66c-10.11,6.35-20.57,12.14-30.59,18.62c-8.93,5.77-18.6,9.4-28.8,11.91
				c-0.26,0.06-0.54,0.09-0.9,0.12c-0.44,0.03-0.65-0.53-0.29-0.79c8.3-6.16,17.25-9.75,26.18-13.37c0.43-0.17,0.33-0.81-0.13-0.84
				c-1.59-0.13-3.14-0.13-4.69-0.05c-1.03,0.05-2.06,0.19-3.06,0.43c-17.73,4.25-32.1,14.14-44.73,26.87
				c-10.93,11.02-17.59,24.52-22.47,38.96c-4.43,13.11-11.89,25-21.98,34.46c-2.46,2.31-3.86,3.24-6.83,1.84
				c-4.79-2.26-9.82-4.13-14.9-5.6c-24.95-7.24-50.12-7.07-75.32-1.56c-29.54,6.46-54.73,19.97-72.18,45.61
				c-8.07,11.86-13.52,25.01-14.68,39.18c-2.31,28.39,6.79,53.32,25.76,74.53c5.16,5.77,10.92,11.04,18.11,14.34
				c1.72,0.79,2.27,1.65,2.03,3.59c-0.51,4.19-0.57,8.44,1.86,12.2c2.04,3.16,4.82,3.01,6.31-0.41c1-2.3,1.62-4.76,2.39-7.16
				c1.25-3.88,1.37-3.9,5.3-3.15c5.5,1.05,10.99,2.14,16.52,2.97c18.81,2.85,37.05,1.25,54.27-7.48c1.53-0.78,12.74-6.94,20.9-16.81
				c3.98-4.81,9.11-13.69,13.49-27.85c1.04-3.36,1.37-6.95,1.83-10.46c0.28-2.13,0.37-4.49-2.13-5.54
				c-2.49-1.05-5.07-0.47-6.68,1.47c-2.04,2.47-4.66,5.12-5.03,8.23c-0.41,3.47-0.07,3.04-1.84,11.7
				c-3.92,19.13-16.97,28.1-34.64,32.02c-14.68,3.26-29.31,2.64-43.67-1.93c-3.66-1.17-7.18-2.8-10.99-4.33
				c-0.22-0.09-0.33-0.34-0.25-0.56c0.52-1.42,0.92-2.61,1.41-3.76c7.66-17.98,18.29-34.19,29.98-49.74
				c22.36-29.76,50.06-53.4,82.34-71.8c4.29-2.45,8.4-5.22,12.64-7.75c0.8-0.48,1.93-0.85,2.81-0.69
				c44,7.75,79.7,29.98,108.96,63.08c11.12,12.58,18.03,27.75,24.5,43.12c8.95,21.25,12.06,43.38,10.7,66.27
				c-1.88,31.49-11.33,60.2-30.16,85.86c-14.46,19.7-33.22,33.5-55.21,43.42c-13.73,6.2-28.18,10.28-42.6,14.44
				c-1.01,0.29-2.01,0.6-3,1c-0.43,0.17-0.33,0.82,0.14,0.84c14.14,0.8,28.01-1.21,41.81-3.91c0.23-0.05,0.45,0.1,0.51,0.33l0,0.01
				c0.05,0.23-0.09,0.46-0.31,0.52c-4.94,1.29-9.84,2.81-14.84,3.78c-17.14,3.33-34.09,3.02-50.09-4.74
				c-14.06-6.81-24.1-17.74-29.67-32.42c-1.23-3.25-1.29-6.93-1.96-10.4c-0.35-1.84,0.01-4.29-2.56-4.73
				c-2.62-0.45-3.86,1.57-4.72,3.58c-3.39,7.96-3.58,16.2-1.29,24.4c1.09,3.91,2.79,7.65,4.33,11.42c0.18,0.43-0.36,0.81-0.7,0.49
				c-5.35-4.99-10.22-10.54-14.44-16.67c-9.42-13.68-13.46-28.73-11.57-45.32c0.51-4.44,0.69-8.93,0.94-13.39
				c0.04-0.63-0.02-1.26-0.1-1.9c-0.05-0.44-0.65-0.54-0.83-0.13c-7.29,16.4-9.93,33.03-3.12,50.18
				c6.08,15.32,16.73,27.03,29.89,36.55c10.43,7.55,21.77,13.35,34.36,16.47c0.43,0.11,0.85,0.3,1.24,0.6
				c-8.56,0.19-17-0.67-25.32-2.69c-24.11-5.86-39.58-21.68-48.98-43.73c-5.42-12.71-4.92-26.25-2.19-39.68
				c2.71-13.32,8.51-25.43,14.49-37.47c3.78-7.61,11.74-14.41,11.32-22.9c-0.06-1.24-3.53-12.11-5.77-6.38
				c-4.61,11.77-10.34,15.36-15.64,26.84c-6.93,14.98-12,30.49-13.27,47.14c-2.29,29.96,13.02,57.05,40.16,70.37
				c0.66,0.32,1.31,0.65,1.97,0.99c-0.35,0.94-0.24,0.63-0.59,1.57c-8.78-2.2-17.58-4.31-26.28-6.77
				c-23.59-6.65-45.79-16.37-65.95-30.52c-25.34-17.79-44.19-40.97-57.67-68.69c-8.32-17.11-13.5-35.16-15.7-54.03
				c-2.29-19.66-1.08-39.18,3.92-58.34c2.16-8.29,5.01-16.41,7.59-24.59c0.13-0.4,0.68-0.41,0.82-0.02c1.8,5,2.97,9.85,4.69,14.49
				c1.56,4.23,4.14,8.47,6.4,11.16c0.34,0.41,0.97-0.03,0.72-0.49c-6.71-12.4-9.19-25.49-6.76-39.38c1.4-8.01,3.38-15.92,5.28-24.21
				c0.11-0.5-0.57-0.75-0.81-0.3c-1.65,3.06-3.27,5.98-4.5,9.05c-1.93,4.83-3.03,9.99-4.93,14.83c-3.58,9.1-7.87,17.94-11.15,27.14
				c-8.56,23.95-11.2,48.65-7.92,73.89c3.38,25.98,12.32,50.04,25.61,72.56c23.15,39.22,56.64,66.06,98.6,82.93
				c25.42,10.22,52.15,13.31,79.17,14.64c23.81,1.17,47.1-2.18,69.82-9.4c25.77-8.2,49.44-20.42,70.77-37.08
				c11.75-9.18,21.94-19.94,31.33-31.5c11.71-14.42,21.38-30.07,28.75-47.15C597.37,378.47,602.21,350.58,597.62,321.28z
				 M243.69,208.94c13.39-15.32,30.34-25.15,49.5-31.38c21.15-6.87,42.79-9.19,64.91-6.5c1.47,0.18,2.93,0.42,4.4,0.71
				c0.51,0.1,0.44,0.85-0.08,0.86c-49.17,1.04-92.2,17.25-128.01,51.16c-0.36,0.34-0.92-0.07-0.7-0.51
				C236.28,218.21,239.78,213.42,243.69,208.94z M261.95,330.54c-16.77-6.27-31.68-22.47-35.26-39.29c-0.1-0.46,0.52-0.72,0.79-0.34
				c0.7,1,1.3,1.86,1.85,2.75c7.98,12.81,18.84,22.75,31.27,31.06c2.27,1.51,3.04,3.09,1.9,5.59
				C262.41,330.52,262.16,330.62,261.95,330.54z M306.25,340.7c-10.93-0.26-21.69-1.3-31.58-6.54
				C284.91,337.74,295.34,340.39,306.25,340.7z M375.83,187.3c-11.26,2.6-22.51,5.23-33.87,7.33c-12,2.22-24.11,3.84-36.17,5.72
				c-0.18,0.03-0.34,0.13-0.47,0.69c20.95-1.71,41.91-3.42,63.52-5.19c-0.69,0.35-1.3,0.54-1.78,0.91
				c-18.72,14.74-36.85,30.15-53.05,47.69c-15.24,16.51-29.09,34.09-39.67,54c-3.19,6-5.56,12.43-8.45,19.06
				c-0.11,0.25-0.41,0.34-0.64,0.2c-16.67-10.53-28.75-24.69-32.32-44.59c-3.18-17.73,2.18-33.39,14.2-46.77
				c9.33-10.39,20.78-17.82,33.31-23.69c3.55-1.66,7.14-3.21,10.82-4.59c0.51-0.19,0.83,0.54,0.35,0.8
				c-1.31,0.69-2.61,1.38-3.91,2.09c-12.72,6.94-23.64,16.03-31.97,27.94c-10.89,15.57-14.37,32.88-11.82,51.63
				c1.69,12.41,6.8,22.83,15.81,31.14c0.39,0.36,0.96-0.15,0.65-0.58c-0.98-1.35-1.95-2.71-2.87-4.1
				c-8.86-13.35-9.83-28.29-8.58-43.61c1.43-17.44,10.17-31.28,22.51-42.88c22.13-20.8,48.52-32.35,78.83-34.8
				c10.13-0.82,20.29-1.44,30.43-2.15c0.54-0.04,1.08-0.02,1.62-0.01c0.18,0,0.34,0.11,0.4,0.28l0.04,0.11
				c0.08,0.22-0.02,0.45-0.23,0.55C380.32,185.47,378.16,186.76,375.83,187.3z M365.31,485.01c11.15,15.9,24.55,28.3,42.77,34.27
				c0.51,0.17,0.33,0.94-0.21,0.85c-19.58-3.37-39.49-15.09-43.36-34.79C364.43,484.87,365.04,484.62,365.31,485.01z M562.77,421.1
				c-3.55,15.7-11.82,28.87-22.94,40.34c-14.08,14.52-30.25,25.95-49.18,33.29c-0.75,0.29-1.53,0.5-3.06,0.99
				c5.18-3.92,9.83-7.18,14.2-10.77c20.52-16.89,34.86-38.09,44.03-62.96c8.24-22.35,11.47-45.47,11.39-69.17
				c-0.01-4.28-0.01-8.56,0-13.07c0-0.5,0.7-0.61,0.85-0.14c3.31,10.02,6.23,19.81,7.34,30.04
				C567.26,386.93,566.6,404.14,562.77,421.1z"/>
		</g>
		<path class="st3" d="M563.36,341.44c0,2.91-0.01,5.72,0,8.5c1.26,4.3,2.35,8.6,3.17,12.95c-0.24-6.2-0.67-12.33-1.26-18.36
			c-0.35-1.07-0.7-2.15-1.05-3.23C564.06,340.83,563.36,340.94,563.36,341.44z"/>
		<path class="st3" d="M312.41,342.38c-5-0.14-9.89-0.78-14.72-1.77c-3.15-0.34-6.26-0.84-9.32-1.59
			C296.08,341.55,304.2,342.18,312.41,342.38z"/>
		<path class="st3" d="M281.92,336.38c1.81,0.57,3.63,1.11,5.46,1.6c-2.19-0.66-4.38-1.38-6.55-2.14
			C281.19,336.03,281.56,336.2,281.92,336.38z"/>
		<path class="st3" d="M567.63,370.21c1.87,17.28,1.21,34.49-2.62,51.45c-3.22,14.23-10.32,26.38-19.9,37.07
			c-12.05,14.65-29.49,27.01-49.67,37.4c-0.56,0.42-1.12,0.84-1.69,1.27c1.53-0.49,2.31-0.7,3.06-0.99
			c18.94-7.34,35.1-18.78,49.18-33.29c11.12-11.47,19.39-24.64,22.94-40.34c3.84-16.96,4.5-34.17,2.62-51.45
			c-0.99-9.12-3.42-17.9-6.28-26.81c0.59,6.03,1.02,12.16,1.26,18.36C566.99,365.31,567.36,367.75,567.63,370.21z"/>
		<path class="st3" d="M545.1,458.73c-0.99,1.1-1.99,2.2-3.03,3.27c-11.83,12.2-25.14,22.21-40.33,29.46
			c-2.02,1.51-4.12,3.05-6.31,4.68C515.62,485.74,533.06,473.38,545.1,458.73z"/>
		<path class="st3" d="M392.7,511.22c0.03,0.02,0.06,0.04,0.09,0.06C392.75,511.26,392.73,511.24,392.7,511.22z"/>
		<path class="st3" d="M372.75,492.48c0.15,0.18,0.3,0.37,0.44,0.55C373.04,492.85,372.9,492.67,372.75,492.48z"/>
		<path class="st3" d="M387.3,507.24c0.05,0.04,0.1,0.08,0.14,0.12C387.4,507.32,387.35,507.28,387.3,507.24z"/>
		<path class="st3" d="M388.62,508.28c0.04,0.03,0.09,0.07,0.13,0.1C388.71,508.35,388.66,508.32,388.62,508.28z"/>
		<path class="st3" d="M389.96,509.29c0.04,0.03,0.07,0.05,0.11,0.08C390.04,509.35,390,509.32,389.96,509.29z"/>
		<path class="st3" d="M371.62,491.06c0.16,0.21,0.32,0.42,0.49,0.62C371.94,491.48,371.78,491.27,371.62,491.06z"/>
		<path class="st3" d="M391.32,510.27c0.03,0.02,0.06,0.05,0.1,0.07C391.38,510.32,391.35,510.29,391.32,510.27z"/>
		<path class="st3" d="M386,506.17c0.06,0.05,0.11,0.09,0.17,0.14C386.11,506.27,386.05,506.22,386,506.17z"/>
		<path class="st3" d="M380.97,501.61c0.08,0.08,0.16,0.16,0.24,0.23C381.13,501.76,381.05,501.68,380.97,501.61z"/>
		<path class="st3" d="M376.2,496.58c0.11,0.12,0.22,0.25,0.33,0.38C376.42,496.83,376.31,496.71,376.2,496.58z"/>
		<path class="st3" d="M382.2,502.79c0.07,0.07,0.15,0.14,0.22,0.21C382.35,502.93,382.28,502.86,382.2,502.79z"/>
		<path class="st3" d="M378.56,499.15c0.09,0.1,0.19,0.2,0.28,0.3C378.74,499.35,378.65,499.25,378.56,499.15z"/>
		<path class="st3" d="M373.89,493.88c0.13,0.16,0.27,0.32,0.4,0.48C374.16,494.21,374.02,494.04,373.89,493.88z"/>
		<path class="st3" d="M384.71,505.07c0.06,0.05,0.12,0.11,0.18,0.16C384.84,505.18,384.78,505.13,384.71,505.07z"/>
		<path class="st3" d="M383.45,503.95c0.07,0.06,0.13,0.12,0.2,0.18C383.58,504.07,383.52,504.01,383.45,503.95z"/>
		<path class="st3" d="M375.04,495.25c0.12,0.14,0.24,0.28,0.36,0.42C375.28,495.53,375.16,495.39,375.04,495.25z"/>
		<path class="st3" d="M399.91,515.48c0.01,0.01,0.02,0.01,0.03,0.02C399.93,515.49,399.92,515.49,399.91,515.48z"/>
		<path class="st3" d="M377.37,497.87c0.11,0.11,0.21,0.23,0.31,0.34C377.58,498.1,377.47,497.99,377.37,497.87z"/>
		<path class="st3" d="M367.89,486.04c0.34,0.48,0.69,0.97,1.04,1.44C368.58,487.01,368.23,486.52,367.89,486.04z"/>
		<path class="st3" d="M380.02,500.66c-0.09-0.09-0.17-0.18-0.26-0.26C379.84,500.48,379.93,500.57,380.02,500.66z"/>
		<path class="st3" d="M401.42,516.24c0.01,0,0.01,0.01,0.02,0.01C401.43,516.24,401.43,516.24,401.42,516.24z"/>
		<path class="st3" d="M406.09,518.3C406.09,518.3,406.09,518.3,406.09,518.3C406.09,518.3,406.09,518.3,406.09,518.3z"/>
		<path class="st3" d="M398.43,514.69c0.01,0.01,0.02,0.01,0.04,0.02C398.45,514.71,398.44,514.7,398.43,514.69z"/>
		<path class="st3" d="M402.96,516.96c0,0,0.01,0,0.01,0.01C402.96,516.96,402.96,516.96,402.96,516.96z"/>
		<path class="st3" d="M404.51,517.64C404.51,517.65,404.52,517.65,404.51,517.64C404.52,517.65,404.51,517.65,404.51,517.64z"/>
		<path class="st3" d="M395.52,513.02c0.02,0.01,0.04,0.02,0.06,0.04C395.56,513.04,395.54,513.03,395.52,513.02z"/>
		<path class="st3" d="M370.49,489.59c0.18,0.24,0.36,0.48,0.54,0.71C370.85,490.07,370.67,489.83,370.49,489.59z"/>
		<path class="st3" d="M394.1,512.13c0.02,0.02,0.05,0.03,0.07,0.05C394.15,512.16,394.12,512.15,394.1,512.13z"/>
		<path class="st3" d="M396.96,513.87c0.02,0.01,0.03,0.02,0.05,0.03C396.99,513.89,396.98,513.88,396.96,513.87z"/>
		<path class="st3" d="M369.32,488.02c0.22,0.3,0.43,0.59,0.65,0.89C369.75,488.61,369.54,488.32,369.32,488.02z"/>
		<path class="st3" d="M560.8,428.17c-2.63,11.15-8.09,21.31-15.7,30.56c9.58-10.69,16.69-22.84,19.9-37.07
			c3.84-16.96,4.5-34.17,2.62-51.45c-0.27-2.46-0.64-4.9-1.1-7.33C567.37,384.28,565.92,406.47,560.8,428.17z"/>
		<path class="st3" d="M542.07,462c1.04-1.07,2.05-2.16,3.03-3.27c7.61-9.25,13.07-19.41,15.7-30.56c5.12-21.7,6.57-43.9,5.73-65.29
			c-0.82-4.35-1.92-8.65-3.17-12.95c0,1.53,0,3.05,0.01,4.57c0.08,23.69-3.15,46.82-11.39,69.17
			c-9.17,24.88-23.51,46.08-44.03,62.96c-2,1.64-4.06,3.22-6.2,4.82C516.93,484.21,530.24,474.2,542.07,462z"/>
		<path class="st3" d="M376.53,496.96c0.28,0.31,0.55,0.61,0.83,0.92C377.09,497.57,376.81,497.26,376.53,496.96z"/>
		<path class="st3" d="M375.4,495.67c0.26,0.31,0.53,0.61,0.8,0.91C375.94,496.28,375.67,495.98,375.4,495.67z"/>
		<path class="st3" d="M368.92,487.48c0.13,0.18,0.26,0.36,0.39,0.54C369.19,487.84,369.06,487.66,368.92,487.48z"/>
		<path class="st3" d="M369.97,488.91c0.17,0.23,0.34,0.46,0.52,0.68C370.32,489.36,370.14,489.14,369.97,488.91z"/>
		<path class="st3" d="M372.11,491.68c0.21,0.27,0.43,0.53,0.64,0.8C372.53,492.22,372.32,491.95,372.11,491.68z"/>
		<path class="st3" d="M371.03,490.3c0.19,0.25,0.39,0.5,0.59,0.75C371.42,490.81,371.23,490.56,371.03,490.3z"/>
		<path class="st3" d="M374.29,494.37c0.25,0.3,0.5,0.59,0.75,0.88C374.79,494.96,374.54,494.66,374.29,494.37z"/>
		<path class="st3" d="M373.19,493.04c0.23,0.28,0.47,0.57,0.7,0.85C373.66,493.6,373.42,493.32,373.19,493.04z"/>
		<path class="st3" d="M391.42,510.34c0.42,0.3,0.85,0.59,1.28,0.88C392.27,510.93,391.84,510.64,391.42,510.34z"/>
		<path class="st3" d="M399.94,515.5c0.49,0.25,0.98,0.5,1.48,0.74C400.92,515.99,400.43,515.75,399.94,515.5z"/>
		<path class="st3" d="M410.33,519.84c-0.34-0.11-0.67-0.23-1-0.34c0,0,0,0,0,0C409.66,519.61,409.99,519.73,410.33,519.84z"/>
		<path class="st3" d="M377.68,498.22c0.29,0.31,0.58,0.62,0.88,0.93C378.26,498.84,377.97,498.53,377.68,498.22z"/>
		<path class="st3" d="M397.01,513.9c0.47,0.27,0.94,0.53,1.42,0.79C397.95,514.43,397.48,514.17,397.01,513.9z"/>
		<path class="st3" d="M395.58,513.06c0.46,0.28,0.92,0.55,1.38,0.82C396.5,513.6,396.04,513.33,395.58,513.06z"/>
		<path class="st3" d="M398.46,514.71c0.48,0.26,0.96,0.52,1.45,0.77C399.42,515.23,398.94,514.97,398.46,514.71z"/>
		<path class="st3" d="M409.33,519.5c-1.1-0.38-2.17-0.78-3.23-1.2C407.16,518.72,408.23,519.12,409.33,519.5
			C409.33,519.5,409.33,519.5,409.33,519.5z"/>
		<path class="st3" d="M404.52,517.65c0.52,0.22,1.05,0.44,1.58,0.65C405.56,518.09,405.04,517.87,404.52,517.65z"/>
		<path class="st3" d="M402.97,516.96c0.51,0.23,1.03,0.46,1.55,0.68C403.99,517.42,403.48,517.2,402.97,516.96z"/>
		<path class="st3" d="M401.44,516.24c0.5,0.24,1.01,0.48,1.51,0.71C402.45,516.72,401.94,516.49,401.44,516.24z"/>
		<path class="st3" d="M380.97,501.61c-0.32-0.31-0.64-0.63-0.96-0.95C380.33,500.98,380.65,501.29,380.97,501.61z"/>
		<path class="st3" d="M394.17,512.18c0.45,0.28,0.9,0.56,1.35,0.84C395.07,512.74,394.62,512.46,394.17,512.18z"/>
		<path class="st3" d="M382.42,503c0.34,0.32,0.68,0.63,1.03,0.95C383.1,503.63,382.76,503.32,382.42,503z"/>
		<path class="st3" d="M384.9,505.23c0.36,0.32,0.73,0.63,1.1,0.94C385.63,505.86,385.26,505.55,384.9,505.23z"/>
		<path class="st3" d="M383.65,504.13c0.35,0.32,0.71,0.63,1.06,0.94C384.36,504.76,384,504.45,383.65,504.13z"/>
		<path class="st3" d="M392.78,511.27c0.43,0.29,0.87,0.58,1.31,0.86C393.66,511.85,393.22,511.57,392.78,511.27z"/>
		<path class="st3" d="M381.21,501.84c0.33,0.32,0.66,0.64,0.99,0.95C381.87,502.48,381.54,502.16,381.21,501.84z"/>
		<path class="st3" d="M378.84,499.45c0.3,0.32,0.61,0.63,0.92,0.95C379.45,500.08,379.14,499.77,378.84,499.45z"/>
		<path class="st3" d="M388.75,508.38c0.4,0.31,0.81,0.61,1.21,0.91C389.56,508.99,389.15,508.69,388.75,508.38z"/>
		<path class="st3" d="M390.07,509.37c0.41,0.3,0.83,0.6,1.25,0.9C390.9,509.98,390.48,509.68,390.07,509.37z"/>
		<path class="st3" d="M386.16,506.31c0.38,0.31,0.76,0.62,1.14,0.93C386.92,506.94,386.54,506.63,386.16,506.31z"/>
		<path class="st3" d="M387.45,507.36c0.39,0.31,0.78,0.62,1.18,0.92C388.23,507.98,387.83,507.67,387.45,507.36z"/>
		<path class="st3" d="M410.12,520.69c0.53,0.09,0.72-0.68,0.21-0.85c-0.34-0.11-0.67-0.23-1-0.34c-9.96-2.05-17.62-4.53-19.5-7.46
			c1.88,2.93,9.54,5.41,19.5,7.46c-1.1-0.38-2.17-0.78-3.23-1.2c0,0,0,0,0,0c-0.53-0.21-1.05-0.43-1.58-0.65c0,0,0,0,0,0
			c-0.52-0.22-1.03-0.45-1.55-0.68c0,0-0.01,0-0.01-0.01c-0.51-0.23-1.01-0.47-1.51-0.71c-0.01,0-0.01-0.01-0.02-0.01
			c-0.5-0.24-0.99-0.49-1.48-0.74c-0.01-0.01-0.02-0.01-0.03-0.02c-0.49-0.25-0.97-0.51-1.45-0.77c-0.01-0.01-0.02-0.01-0.04-0.02
			c-0.48-0.26-0.95-0.52-1.42-0.79c-0.02-0.01-0.03-0.02-0.05-0.03c-0.46-0.27-0.92-0.54-1.38-0.82c-0.02-0.01-0.04-0.02-0.06-0.04
			c-0.45-0.27-0.9-0.55-1.35-0.84c-0.02-0.02-0.05-0.03-0.07-0.05c-0.44-0.28-0.88-0.57-1.31-0.86c-0.03-0.02-0.06-0.04-0.09-0.06
			c-0.43-0.29-0.86-0.58-1.28-0.88c-0.03-0.02-0.06-0.05-0.1-0.07c-0.42-0.29-0.83-0.59-1.25-0.9c-0.04-0.03-0.07-0.05-0.11-0.08
			c-0.41-0.3-0.81-0.6-1.21-0.91c-0.04-0.03-0.09-0.07-0.13-0.1c-0.39-0.3-0.79-0.61-1.18-0.92c-0.05-0.04-0.1-0.08-0.14-0.12
			c-0.38-0.31-0.76-0.62-1.14-0.93c-0.06-0.05-0.11-0.09-0.17-0.14c-0.37-0.31-0.74-0.62-1.1-0.94c-0.06-0.05-0.12-0.11-0.18-0.16
			c-0.36-0.31-0.71-0.63-1.06-0.94c-0.07-0.06-0.13-0.12-0.2-0.18c-0.34-0.31-0.69-0.63-1.03-0.95c-0.07-0.07-0.15-0.14-0.22-0.21
			c-0.33-0.31-0.66-0.63-0.99-0.95c-0.08-0.08-0.16-0.16-0.24-0.23c-0.32-0.31-0.64-0.63-0.96-0.95c-0.09-0.09-0.17-0.18-0.26-0.26
			c-0.31-0.31-0.61-0.63-0.92-0.95c-0.09-0.1-0.19-0.2-0.28-0.3c-0.29-0.31-0.59-0.62-0.88-0.93c-0.11-0.11-0.21-0.23-0.31-0.34
			c-0.28-0.3-0.56-0.61-0.83-0.92c-0.11-0.12-0.22-0.25-0.33-0.38c-0.27-0.3-0.53-0.6-0.8-0.91c-0.12-0.14-0.24-0.28-0.36-0.42
			c-0.25-0.29-0.5-0.59-0.75-0.88c-0.13-0.16-0.27-0.32-0.4-0.48c-0.23-0.28-0.47-0.56-0.7-0.85c-0.15-0.18-0.3-0.37-0.44-0.55
			c-0.21-0.27-0.43-0.53-0.64-0.8c-0.16-0.21-0.32-0.42-0.49-0.62c-0.2-0.25-0.39-0.5-0.59-0.75c-0.18-0.24-0.36-0.48-0.54-0.71
			c-0.17-0.23-0.35-0.45-0.52-0.68c-0.22-0.29-0.44-0.59-0.65-0.89c-0.13-0.18-0.26-0.36-0.39-0.54c-0.35-0.48-0.69-0.96-1.04-1.44
			l1.73,4.78l-1.73-4.78c-0.11-0.16-0.23-0.32-0.34-0.47c-0.27-0.39-0.88-0.13-0.79,0.33C370.63,505.6,390.54,517.32,410.12,520.69z
			"/>
		<path class="st4" d="M288.37,339.02c3.06,0.75,6.17,1.25,9.32,1.59c-3.47-0.71-6.9-1.61-10.3-2.64c-1.83-0.49-3.65-1.03-5.46-1.6
			C284.03,337.43,286.18,338.31,288.37,339.02z"/>
		<path class="st1" d="M308.49,341.26c-7.21-0.2-14.22-1.43-21.1-3.28c3.4,1.03,6.84,1.92,10.3,2.64
			C301.25,341,304.86,341.17,308.49,341.26z"/>
		<path class="st1" d="M276.91,334.72c3.71,1.97,7.54,3.34,11.45,4.31c-2.18-0.71-4.33-1.59-6.45-2.64
			C280.24,335.85,278.57,335.3,276.91,334.72z"/>
	</g>
</g>
<g id="Layer_2">
</g>
</svg>
