<?xml version="1.0" encoding="utf-8"?>
<!-- Generator: Adobe Illustrator 25.3.0, SVG Export Plug-In . SVG Version: 6.00 Build 0)  -->
<svg version="1.1" xmlns="http://www.w3.org/2000/svg" xmlns:xlink="http://www.w3.org/1999/xlink" x="0px" y="0px"
	 viewBox="0 0 120 140.56" style="enable-background:new 0 0 120 140.56;" xml:space="preserve">
<style type="text/css">
	.st0{fill:none;stroke:#960B0B;stroke-width:1.7959;stroke-miterlimit:10;}
	.st1{fill:#960B0B;}
	.st2{fill:#FFFFFF;}
	.st3{fill:none;}
	.st4{fill:none;stroke:#FFFFFF;stroke-width:0.1497;stroke-miterlimit:10;}
</style>
<g id="Layer_1">
	<g>
		<path class="st0" d="M60.24,46.64c0,0-65.72,2.97-34.84,37.03"/>
		<path class="st1" d="M89.18,128.92c-0.77,0.37-1.56,0.71-2.37,1.03c-0.2,0.08-0.41,0.13-0.82,0.26c1.38-1.05,2.63-1.92,3.79-2.88
			c5.48-4.51,9.32-10.18,11.77-16.82c2.2-5.97,3.06-12.15,3.04-18.48c0-1.14,0-2.29,0-3.49c0-0.13,0.19-0.16,0.23-0.04
			c0.29,0.87,0.57,1.74,0.82,2.61c0-0.74,0-1.49,0-2.27c0-0.13,0.19-0.16,0.23-0.04c0.1,0.29,0.19,0.58,0.28,0.86
			c-0.35-3.54-0.9-6.94-1.55-10.13c-0.21-0.54-0.43-1.08-0.64-1.62c-1.23-3.12-2.55-6.24-4.18-9.17c-2.99-5.37-7.34-9.6-12.16-13.35
			c-5.79-4.51-11.96-8.21-19.4-9.27c-0.12-0.02-0.35-0.11-0.54-0.21c-0.01-0.01-0.02-0.01-0.03-0.02l-12.66,4.53
			c0.11-0.01,0.22-0.02,0.33-0.03c-0.18,0.09-0.35,0.14-0.47,0.24c-5,3.94-9.85,8.06-14.17,12.74c-4.07,4.41-7.77,9.11-10.6,14.43
			c-0.76,1.43-1.35,2.96-2.02,4.53c-0.84,3.09-1.41,6.51-1.69,8.37c0.04,0.62,0.2,1.23,0.56,1.8c0.54,0.84,1.29,0.8,1.69-0.11
			c0.27-0.61,0.43-1.27,0.64-1.91c0.33-1.04,0.37-1.04,1.42-0.84c1.47,0.28,2.94,0.57,4.42,0.79c5.03,0.76,9.9,0.33,14.5-2
			c0.41-0.21,3.4-1.86,5.58-4.49c1.06-1.29,2.43-3.66,3.61-7.44c0.28-0.9,0.37-1.86,0.49-2.79c0.07-0.57,0.1-1.2-0.57-1.48
			c-0.66-0.28-1.36-0.12-1.78,0.39c-0.54,0.66-1.24,1.37-1.34,2.2c-0.11,0.93-0.02,0.81-0.49,3.13c-1.05,5.11-4.53,7.51-9.26,8.56
			c-3.92,0.87-7.83,0.71-11.67-0.52c-0.98-0.31-1.92-0.75-2.94-1.16c-0.06-0.02-0.09-0.09-0.07-0.15c0.14-0.38,0.25-0.7,0.38-1
			c2.05-4.81,4.89-9.13,8.01-13.29c5.98-7.95,13.37-14.27,22-19.18c1.15-0.65,2.24-1.4,3.38-2.07c0.21-0.13,0.52-0.23,0.75-0.19
			c11.76,2.07,21.29,8.01,29.11,16.86c2.97,3.36,4.82,7.42,6.54,11.52c2.39,5.68,3.22,11.59,2.86,17.71
			c-0.5,8.41-3.03,16.09-8.06,22.94c-3.86,5.26-8.88,8.95-14.75,11.6c-3.67,1.66-7.53,2.75-11.38,3.86
			c-0.27,0.08-0.54,0.16-0.8,0.27c-0.12,0.05-0.09,0.22,0.04,0.23c3.78,0.21,7.48-0.32,11.17-1.05c0.06-0.01,0.12,0.03,0.14,0.09
			l0,0c0.01,0.06-0.02,0.12-0.08,0.14c-1.32,0.34-2.63,0.75-3.96,1.01c-4.58,0.89-9.11,0.81-13.38-1.27
			c-3.76-1.82-6.44-4.74-7.93-8.66c-0.33-0.87-0.35-1.85-0.52-2.78c-0.09-0.49,0-1.15-0.68-1.26c-0.7-0.12-1.03,0.42-1.26,0.96
			c-0.13,0.3-0.24,0.6-0.33,0.91l2.09,5.77c2.91,4.11,6.39,7.33,11.07,8.94c1.03,0.21,2.16,0.41,3.33,0.58
			c6.47-1.86,12.95-4.2,18.63-7.13C88.08,129.74,88.64,129.33,89.18,128.92z M31.91,87.92c1.84,0.49,3.71,0.82,5.64,0.88
			c-0.97-0.02-1.93-0.07-2.89-0.17c1.29,0.26,2.6,0.43,3.93,0.47c-2.19-0.05-4.36-0.22-6.42-0.9c-1.05-0.26-2.07-0.63-3.06-1.15
			c0.44,0.16,0.89,0.3,1.34,0.45c-0.1-0.05-0.19-0.09-0.29-0.15C30.74,87.55,31.32,87.74,31.91,87.92z"/>
		<g>
			<path class="st2" d="M67.02,30.97c-0.38,1.03-0.73,2.06-1.15,3.07c-0.08,0.19-0.43,0.36-0.67,0.37
				c-2.16,0.14-4.33,0.18-6.49,0.37c-8.56,0.78-16.76,2.95-24.6,6.47c-0.36,0.16-0.72,0.31-1.2,0.51
				C36.94,36.99,58.31,30.27,67.02,30.97z"/>
			<path class="st2" d="M114.8,83.46c-1.09-6.94-3.47-13.39-7.07-19.4c-2.41-4.04-5.4-7.59-8.94-10.68
				c-2.86-2.5-5.91-4.76-9.19-6.66c-3.23-1.87-6.58-3.54-9.9-5.25c-0.72-0.37-1.54-0.55-2.32-0.8c-0.05-0.02-0.11,0.01-0.14,0.06
				l-0.05,0.1c-0.03,0.05-0.01,0.11,0.04,0.15c0.81,0.58,1.61,1.17,2.45,1.72c3.63,2.37,7.31,4.67,10.9,7.11
				c5.22,3.54,9.8,7.78,13.41,12.99c4.83,6.96,7.91,14.59,8.38,23.11c0.18,3.25,0.07,6.54-0.19,9.78c-0.28,3.6-1.55,7-2.88,10.33
				c-0.67,1.68-1.49,3.3-2.26,4.93c-0.06,0.12-0.25,0.06-0.22-0.07c0.15-0.8,0.38-1.58,0.54-2.36c1.27-6.24,1.08-12.5-0.59-18.6
				c-1.16-4.24-2.82-8.35-4.44-12.45c-1.23-3.12-2.55-6.24-4.18-9.17c-2.99-5.37-7.34-9.6-12.16-13.35
				c-5.79-4.51-11.96-8.21-19.4-9.27c-0.12-0.02-0.35-0.11-0.54-0.21c-0.2-0.1-0.28-0.34-0.2-0.54l1.24-2.98
				c0-0.01,0.01-0.01,0.01-0.02c0.78-1.3,2.12-1.82,3.37-2.48c1.23-0.65,2.55-1.2,3.63-2.05c1.72-1.35,3.33-2.85,4.89-4.38
				c1.76-1.73,3.36-3.62,5.13-5.34c1.53-1.49,3.21-2.82,5.56-2.63c0.07,0.01,0.17,0,0.22-0.04c0.21-0.18,0.54-0.36,0.57-0.58
				c0.03-0.22-0.17-0.57-0.38-0.72c-0.25-0.18-0.6-0.24-0.91-0.27c-1.3-0.15-2.52,0.1-3.69,0.7c-1.8,0.92-3.3,2.23-4.69,3.67
				c-1.73,1.8-3.43,3.62-5.15,5.42c-0.12,0.13-0.25,0.26-0.38,0.38c-0.1,0.1-0.26-0.03-0.18-0.15c2.61-3.89,5.61-7.44,9.21-10.46
				c0.08-0.07,0.03-0.2-0.07-0.21c-0.21,0-0.4,0.01-0.59,0.03c-2.47,0.28-4.84,0.82-6.57,2.81c-1.72,1.97-3.41,3.97-5.1,5.96
				c-0.41,0.49-0.78,1.02-1.24,1.63c-0.01-0.22-0.04-0.29-0.02-0.35c1.18-3.82,3.34-7.02,6.21-9.75c0.18-0.17,0.4-0.29,0.64-0.36
				c2.68-0.75,5.38-1.41,8.18-1.57c2.11-0.12,4.24-0.24,6.33-0.54c4.57-0.66,8.06-3.23,11.16-6.49c2.47-2.6,4.96-5.19,7.53-7.69
				c0.87-0.85,2.02-1.41,3.04-2.11c0.22-0.15,0.53-0.28,0.64-0.49c0.13-0.25,0.17-0.63,0.06-0.87c-0.06-0.13-0.53-0.16-0.78-0.1
				c-0.3,0.08-0.57,0.31-0.83,0.49c-2.84,1.93-5.28,4.32-7.66,6.79c-2.3,2.39-4.54,4.84-7.31,6.72c-2.43,1.64-6.76,2.79-9.45,2.42
				c-0.11-0.01-0.14-0.16-0.04-0.22c0.72-0.42,1.4-0.82,2.09-1.2c2.65-1.45,5.21-3.02,7.46-5.08c1.72-1.58,3.6-2.99,5.46-4.42
				c1.87-1.44,3.81-2.8,5.68-4.25c0.35-0.27,0.54-0.79,0.68-1.24c0.04-0.13-0.32-0.51-0.55-0.57c-0.56-0.14-1.13-0.06-1.52,0.49
				c-0.05,0.07-0.09,0.13-0.15,0.19c-0.54,0.6-1.01,1.3-1.64,1.79c-2.17,1.68-4.4,3.27-6.59,4.91c-0.88,0.66-1.65,1.47-2.57,2.05
				c-2.7,1.7-5.5,3.24-8.17,4.98c-2.38,1.54-4.97,2.51-7.7,3.18c-0.07,0.02-0.14,0.02-0.24,0.03c-0.12,0.01-0.17-0.14-0.08-0.21
				c2.22-1.65,4.61-2.6,7-3.57c0.11-0.05,0.09-0.22-0.03-0.23c-0.42-0.03-0.84-0.03-1.25-0.01c-0.28,0.01-0.55,0.05-0.82,0.12
				c-4.74,1.14-8.58,3.78-11.95,7.18c-2.92,2.94-4.7,6.55-6,10.41c-1.18,3.5-3.18,6.68-5.87,9.21c-0.66,0.62-1.03,0.87-1.82,0.49
				c-1.28-0.6-2.62-1.1-3.98-1.5c-6.67-1.93-13.39-1.89-20.12-0.42c-7.89,1.73-14.62,5.34-19.29,12.19
				c-2.16,3.17-3.61,6.68-3.92,10.47C11.9,71.67,14.33,78.33,19.4,84c1.38,1.54,2.92,2.95,4.84,3.83c0.46,0.21,0.61,0.44,0.54,0.96
				c-0.14,1.12-0.15,2.25,0.5,3.26c0.54,0.84,1.29,0.8,1.69-0.11c0.27-0.61,0.43-1.27,0.64-1.91c0.33-1.04,0.37-1.04,1.42-0.84
				c1.47,0.28,2.94,0.57,4.42,0.79c5.03,0.76,9.9,0.33,14.5-2c0.41-0.21,3.4-1.86,5.58-4.49c1.06-1.29,2.43-3.66,3.61-7.44
				c0.28-0.9,0.37-1.86,0.49-2.79c0.07-0.57,0.1-1.2-0.57-1.48c-0.66-0.28-1.36-0.12-1.78,0.39c-0.54,0.66-1.24,1.37-1.34,2.2
				c-0.11,0.93-0.02,0.81-0.49,3.13c-1.05,5.11-4.53,7.51-9.26,8.56c-3.92,0.87-7.83,0.71-11.67-0.52
				c-0.98-0.31-1.92-0.75-2.94-1.16c-0.06-0.02-0.09-0.09-0.07-0.15c0.14-0.38,0.25-0.7,0.38-1c2.05-4.81,4.89-9.13,8.01-13.29
				c5.98-7.95,13.37-14.27,22-19.18c1.15-0.65,2.24-1.4,3.38-2.07c0.21-0.13,0.52-0.23,0.75-0.19c11.76,2.07,21.29,8.01,29.11,16.86
				c2.97,3.36,4.82,7.42,6.54,11.52c2.39,5.68,3.22,11.59,2.86,17.71c-0.5,8.41-3.03,16.09-8.06,22.94
				c-3.86,5.26-8.88,8.95-14.75,11.6c-3.67,1.66-7.53,2.75-11.38,3.86c-0.27,0.08-0.54,0.16-0.8,0.27
				c-0.12,0.05-0.09,0.22,0.04,0.23c3.78,0.21,7.48-0.32,11.17-1.05c0.06-0.01,0.12,0.03,0.14,0.09l0,0
				c0.01,0.06-0.02,0.12-0.08,0.14c-1.32,0.34-2.63,0.75-3.96,1.01c-4.58,0.89-9.11,0.81-13.38-1.27c-3.76-1.82-6.44-4.74-7.93-8.66
				c-0.33-0.87-0.35-1.85-0.52-2.78c-0.09-0.49,0-1.15-0.68-1.26c-0.7-0.12-1.03,0.42-1.26,0.96c-0.91,2.13-0.96,4.33-0.34,6.52
				c0.29,1.04,0.74,2.04,1.16,3.05c0.05,0.12-0.1,0.22-0.19,0.13c-1.43-1.33-2.73-2.82-3.86-4.46c-2.52-3.66-3.6-7.68-3.09-12.11
				c0.14-1.19,0.18-2.38,0.25-3.58c0.01-0.17-0.01-0.34-0.03-0.51c-0.01-0.12-0.17-0.14-0.22-0.03c-1.95,4.38-2.65,8.82-0.83,13.41
				c1.63,4.09,4.47,7.22,7.99,9.77c2.79,2.02,5.82,3.57,9.18,4.4c0.12,0.03,0.23,0.08,0.33,0.16c-2.29,0.05-4.54-0.18-6.76-0.72
				c-6.44-1.56-10.58-5.79-13.09-11.68c-1.45-3.4-1.31-7.01-0.58-10.6c0.72-3.56,2.27-6.79,3.87-10.01
				c1.01-2.03,3.14-3.85,3.02-6.12c-0.02-0.33-0.94-3.23-1.54-1.7c-1.23,3.15-2.76,4.1-4.18,7.17c-1.85,4-3.21,8.15-3.55,12.6
				c-0.61,8,3.48,15.24,10.73,18.8c0.18,0.09,0.35,0.17,0.53,0.26c-0.09,0.25-0.06,0.17-0.16,0.42c-2.34-0.59-4.7-1.15-7.02-1.81
				c-6.3-1.78-12.23-4.37-17.62-8.16c-6.77-4.75-11.81-10.95-15.41-18.35c-2.22-4.57-3.61-9.4-4.19-14.44
				C4.83,87.8,5.15,82.59,6.49,77.47c0.58-2.22,1.34-4.38,2.03-6.57c0.03-0.11,0.18-0.11,0.22-0.01c0.48,1.34,0.79,2.63,1.25,3.87
				c0.42,1.13,1.1,2.26,1.71,2.98c0.09,0.11,0.26-0.01,0.19-0.13c-1.79-3.31-2.46-6.81-1.81-10.52c0.37-2.14,0.9-4.25,1.41-6.47
				c0.03-0.13-0.15-0.2-0.22-0.08c-0.44,0.82-0.87,1.6-1.2,2.42c-0.51,1.29-0.81,2.67-1.32,3.96c-0.96,2.43-2.1,4.79-2.98,7.25
				c-2.29,6.4-2.99,13-2.12,19.74c0.9,6.94,3.29,13.37,6.84,19.39c6.18,10.48,15.13,17.65,26.34,22.16
				c6.79,2.73,13.93,3.56,21.15,3.91c6.36,0.31,12.58-0.58,18.65-2.51c6.89-2.19,13.21-5.46,18.91-9.91
				c3.14-2.45,5.86-5.33,8.37-8.42c3.13-3.85,5.71-8.03,7.68-12.6C114.73,98.73,116.02,91.28,114.8,83.46z M20.23,53.44
				c3.58-4.09,8.11-6.72,13.22-8.38c5.65-1.84,11.43-2.46,17.34-1.74c0.39,0.05,0.78,0.11,1.18,0.19c0.14,0.03,0.12,0.23-0.02,0.23
				c-13.14,0.28-24.64,4.61-34.2,13.67c-0.09,0.09-0.24-0.02-0.19-0.14C18.25,55.92,19.19,54.63,20.23,53.44z M25.11,85.93
				c-4.48-1.68-8.46-6-9.42-10.5c-0.03-0.12,0.14-0.19,0.21-0.09c0.19,0.27,0.35,0.5,0.5,0.74c2.13,3.42,5.03,6.08,8.35,8.3
				c0.61,0.4,0.81,0.83,0.51,1.49C25.23,85.92,25.17,85.95,25.11,85.93z M36.95,88.64c-2.92-0.07-5.8-0.35-8.44-1.75
				C31.25,87.85,34.03,88.56,36.95,88.64z M55.54,47.66c-3.01,0.69-6.02,1.4-9.05,1.96c-3.21,0.59-6.44,1.03-9.66,1.53
				c-0.05,0.01-0.09,0.03-0.12,0.18c5.6-0.46,11.2-0.91,16.97-1.39c-0.18,0.09-0.35,0.14-0.47,0.24c-5,3.94-9.85,8.06-14.17,12.74
				c-4.07,4.41-7.77,9.11-10.6,14.43c-0.85,1.6-1.49,3.32-2.26,5.09c-0.03,0.07-0.11,0.09-0.17,0.05c-4.45-2.81-7.68-6.6-8.64-11.91
				c-0.85-4.74,0.58-8.92,3.79-12.5c2.49-2.78,5.55-4.76,8.9-6.33c0.95-0.44,1.91-0.86,2.89-1.23c0.14-0.05,0.22,0.14,0.09,0.21
				c-0.35,0.18-0.7,0.37-1.04,0.56c-3.4,1.86-6.32,4.28-8.54,7.46c-2.91,4.16-3.84,8.79-3.16,13.79c0.45,3.32,1.82,6.1,4.23,8.32
				c0.1,0.1,0.26-0.04,0.17-0.15c-0.26-0.36-0.52-0.72-0.77-1.1c-2.37-3.57-2.63-7.56-2.29-11.65c0.38-4.66,2.72-8.36,6.01-11.46
				c5.91-5.56,12.97-8.64,21.06-9.3c2.71-0.22,5.42-0.39,8.13-0.57c0.14-0.01,0.29,0,0.43,0c0.05,0,0.09,0.03,0.11,0.07l0.01,0.03
				c0.02,0.06,0,0.12-0.06,0.15C56.74,47.17,56.16,47.51,55.54,47.66z M52.73,127.2c2.98,4.25,6.56,7.56,11.43,9.16
				c0.14,0.05,0.09,0.25-0.06,0.23c-5.23-0.9-10.55-4.03-11.58-9.3C52.49,127.16,52.65,127.1,52.73,127.2z M105.49,110.13
				c-0.95,4.19-3.16,7.71-6.13,10.78c-3.76,3.88-8.08,6.93-13.14,8.9c-0.2,0.08-0.41,0.13-0.82,0.26c1.38-1.05,2.63-1.92,3.79-2.88
				c5.48-4.51,9.32-10.18,11.77-16.82c2.2-5.97,3.06-12.15,3.04-18.48c0-1.14,0-2.29,0-3.49c0-0.13,0.19-0.16,0.23-0.04
				c0.89,2.68,1.66,5.29,1.96,8.03C106.69,101,106.51,105.59,105.49,110.13z"/>
		</g>
		<path class="st3" d="M105.64,88.84c0,0.78,0,1.53,0,2.27c0.34,1.15,0.63,2.3,0.85,3.46c-0.06-1.66-0.18-3.29-0.34-4.91
			c-0.09-0.29-0.19-0.57-0.28-0.86C105.83,88.68,105.64,88.71,105.64,88.84z"/>
		<path class="st3" d="M38.59,89.09c-1.34-0.04-2.64-0.21-3.93-0.47c-0.84-0.09-1.67-0.22-2.49-0.42
			C34.23,88.87,36.4,89.04,38.59,89.09z"/>
		<path class="st3" d="M30.45,87.49c0.48,0.15,0.97,0.3,1.46,0.43c-0.59-0.18-1.17-0.37-1.75-0.57
			C30.25,87.39,30.35,87.44,30.45,87.49z"/>
		<path class="st3" d="M106.78,96.53c0.5,4.62,0.32,9.22-0.7,13.75c-0.86,3.8-2.76,7.05-5.32,9.9c-3.22,3.91-7.88,7.22-13.27,9.99
			c-0.15,0.11-0.3,0.22-0.45,0.34c0.41-0.13,0.62-0.19,0.82-0.26c5.06-1.96,9.38-5.02,13.14-8.9c2.97-3.06,5.18-6.58,6.13-10.78
			c1.02-4.53,1.2-9.13,0.7-13.75c-0.26-2.44-0.91-4.78-1.68-7.16c0.16,1.61,0.27,3.25,0.34,4.91
			C106.61,95.22,106.71,95.87,106.78,96.53z"/>
		<path class="st3" d="M100.77,120.18c-0.26,0.29-0.53,0.59-0.81,0.87c-3.16,3.26-6.72,5.93-10.77,7.87
			c-0.54,0.4-1.1,0.81-1.68,1.25C92.89,127.4,97.55,124.09,100.77,120.18z"/>
		<path class="st3" d="M60.04,134.2c0.01,0.01,0.02,0.01,0.02,0.02C60.06,134.21,60.05,134.21,60.04,134.2z"/>
		<path class="st3" d="M54.71,129.2c0.04,0.05,0.08,0.1,0.12,0.15C54.79,129.3,54.75,129.25,54.71,129.2z"/>
		<path class="st3" d="M58.6,133.14c0.01,0.01,0.03,0.02,0.04,0.03C58.63,133.16,58.62,133.15,58.6,133.14z"/>
		<path class="st3" d="M58.96,133.42c0.01,0.01,0.02,0.02,0.03,0.03C58.98,133.44,58.97,133.43,58.96,133.42z"/>
		<path class="st3" d="M59.31,133.69c0.01,0.01,0.02,0.01,0.03,0.02C59.33,133.7,59.32,133.7,59.31,133.69z"/>
		<path class="st3" d="M54.41,128.82c0.04,0.06,0.09,0.11,0.13,0.17C54.5,128.93,54.46,128.87,54.41,128.82z"/>
		<path class="st3" d="M59.68,133.95c0.01,0.01,0.02,0.01,0.03,0.02C59.69,133.96,59.69,133.96,59.68,133.95z"/>
		<path class="st3" d="M58.25,132.86c0.01,0.01,0.03,0.02,0.04,0.04C58.28,132.88,58.27,132.87,58.25,132.86z"/>
		<path class="st3" d="M56.91,131.64c0.02,0.02,0.04,0.04,0.06,0.06C56.95,131.68,56.93,131.66,56.91,131.64z"/>
		<path class="st3" d="M55.64,130.29c0.03,0.03,0.06,0.07,0.09,0.1C55.7,130.36,55.67,130.33,55.64,130.29z"/>
		<path class="st3" d="M57.24,131.95c0.02,0.02,0.04,0.04,0.06,0.06C57.28,131.99,57.26,131.97,57.24,131.95z"/>
		<path class="st3" d="M56.27,130.98c0.03,0.03,0.05,0.05,0.08,0.08C56.32,131.03,56.29,131.01,56.27,130.98z"/>
		<path class="st3" d="M55.02,129.57c0.04,0.04,0.07,0.09,0.11,0.13C55.09,129.66,55.06,129.61,55.02,129.57z"/>
		<path class="st3" d="M57.91,132.56c0.02,0.01,0.03,0.03,0.05,0.04C57.94,132.59,57.93,132.58,57.91,132.56z"/>
		<path class="st3" d="M57.57,132.26c0.02,0.02,0.04,0.03,0.05,0.05C57.61,132.29,57.59,132.28,57.57,132.26z"/>
		<path class="st3" d="M55.33,129.94c0.03,0.04,0.06,0.08,0.1,0.11C55.39,130.01,55.36,129.97,55.33,129.94z"/>
		<path class="st3" d="M61.97,135.34C61.97,135.34,61.98,135.35,61.97,135.34C61.98,135.35,61.97,135.34,61.97,135.34z"/>
		<path class="st3" d="M55.95,130.64c0.03,0.03,0.06,0.06,0.08,0.09C56,130.7,55.98,130.67,55.95,130.64z"/>
		<path class="st3" d="M53.42,127.48c0.09,0.13,0.18,0.26,0.28,0.39C53.6,127.73,53.51,127.61,53.42,127.48z"/>
		<path class="st3" d="M56.66,131.38c-0.02-0.02-0.05-0.05-0.07-0.07C56.61,131.33,56.63,131.36,56.66,131.38z"/>
		<path class="st3" d="M62.38,135.54C62.38,135.54,62.38,135.55,62.38,135.54C62.38,135.55,62.38,135.54,62.38,135.54z"/>
		<path class="st3" d="M63.62,136.1C63.62,136.1,63.62,136.1,63.62,136.1C63.62,136.1,63.62,136.1,63.62,136.1z"/>
		<path class="st3" d="M61.57,135.13C61.58,135.13,61.58,135.14,61.57,135.13C61.58,135.14,61.58,135.13,61.57,135.13z"/>
		<path class="st3" d="M62.79,135.74C62.79,135.74,62.79,135.74,62.79,135.74C62.79,135.74,62.79,135.74,62.79,135.74z"/>
		<path class="st3" d="M63.2,135.92C63.2,135.92,63.2,135.92,63.2,135.92C63.2,135.92,63.2,135.92,63.2,135.92z"/>
		<path class="st3" d="M60.8,134.68c0.01,0,0.01,0.01,0.02,0.01C60.81,134.69,60.8,134.69,60.8,134.68z"/>
		<path class="st3" d="M54.11,128.42c0.05,0.06,0.1,0.13,0.14,0.19C54.21,128.55,54.16,128.49,54.11,128.42z"/>
		<path class="st3" d="M60.42,134.45c0.01,0,0.01,0.01,0.02,0.01C60.43,134.46,60.42,134.45,60.42,134.45z"/>
		<path class="st3" d="M61.18,134.91c0,0,0.01,0.01,0.01,0.01C61.19,134.92,61.19,134.92,61.18,134.91z"/>
		<path class="st3" d="M53.8,128.01c0.06,0.08,0.12,0.16,0.17,0.24C53.91,128.16,53.86,128.08,53.8,128.01z"/>
		<path class="st3" d="M104.96,112.02c-0.7,2.98-2.16,5.69-4.19,8.17c2.56-2.86,4.46-6.1,5.32-9.9c1.02-4.53,1.2-9.13,0.7-13.75
			c-0.07-0.66-0.17-1.31-0.29-1.96C106.71,100.29,106.33,106.22,104.96,112.02z"/>
		<path class="st3" d="M99.95,121.05c0.28-0.29,0.55-0.58,0.81-0.87c2.03-2.47,3.49-5.19,4.19-8.17c1.37-5.8,1.75-11.73,1.53-17.44
			c-0.22-1.16-0.51-2.31-0.85-3.46c0,0.41,0,0.82,0,1.22c0.02,6.33-0.84,12.51-3.04,18.48c-2.45,6.65-6.28,12.31-11.77,16.82
			c-0.53,0.44-1.08,0.86-1.66,1.29C93.24,126.99,96.79,124.31,99.95,121.05z"/>
		<path class="st3" d="M55.73,130.39c0.07,0.08,0.15,0.16,0.22,0.24C55.87,130.56,55.8,130.48,55.73,130.39z"/>
		<path class="st3" d="M55.42,130.05c0.07,0.08,0.14,0.16,0.21,0.24C55.57,130.21,55.49,130.13,55.42,130.05z"/>
		<path class="st3" d="M53.69,127.86c0.03,0.05,0.07,0.1,0.11,0.14C53.76,127.96,53.73,127.91,53.69,127.86z"/>
		<path class="st3" d="M53.97,128.24c0.05,0.06,0.09,0.12,0.14,0.18C54.06,128.36,54.02,128.3,53.97,128.24z"/>
		<path class="st3" d="M54.54,128.98c0.06,0.07,0.11,0.14,0.17,0.21C54.66,129.13,54.6,129.06,54.54,128.98z"/>
		<path class="st3" d="M54.26,128.62c0.05,0.07,0.1,0.13,0.16,0.2C54.36,128.75,54.31,128.68,54.26,128.62z"/>
		<path class="st3" d="M55.13,129.7c0.07,0.08,0.13,0.16,0.2,0.24C55.26,129.86,55.19,129.78,55.13,129.7z"/>
		<path class="st3" d="M54.83,129.35c0.06,0.08,0.12,0.15,0.19,0.23C54.96,129.5,54.89,129.42,54.83,129.35z"/>
		<path class="st3" d="M59.7,133.97c0.11,0.08,0.23,0.16,0.34,0.23C59.93,134.13,59.82,134.05,59.7,133.97z"/>
		<path class="st3" d="M61.98,135.35c0.13,0.07,0.26,0.13,0.4,0.2C62.24,135.48,62.11,135.41,61.98,135.35z"/>
		<path class="st3" d="M64.75,136.51c-0.09-0.03-0.18-0.06-0.27-0.09c0,0,0,0,0,0C64.58,136.45,64.67,136.48,64.75,136.51z"/>
		<path class="st3" d="M56.03,130.73c0.08,0.08,0.16,0.17,0.23,0.25C56.19,130.9,56.11,130.81,56.03,130.73z"/>
		<path class="st3" d="M61.2,134.92c0.13,0.07,0.25,0.14,0.38,0.21C61.45,135.06,61.32,134.99,61.2,134.92z"/>
		<path class="st3" d="M60.81,134.69c0.12,0.07,0.25,0.15,0.37,0.22C61.06,134.84,60.94,134.77,60.81,134.69z"/>
		<path class="st3" d="M61.58,135.14c0.13,0.07,0.26,0.14,0.39,0.2C61.84,135.28,61.71,135.21,61.58,135.14z"/>
		<path class="st3" d="M64.49,136.42c-0.29-0.1-0.58-0.21-0.86-0.32C63.91,136.21,64.2,136.32,64.49,136.42
			C64.49,136.42,64.49,136.42,64.49,136.42z"/>
		<path class="st3" d="M63.2,135.92c0.14,0.06,0.28,0.12,0.42,0.17C63.48,136.04,63.34,135.98,63.2,135.92z"/>
		<path class="st3" d="M62.79,135.74c0.14,0.06,0.27,0.12,0.41,0.18C63.06,135.86,62.93,135.8,62.79,135.74z"/>
		<path class="st3" d="M62.38,135.55c0.13,0.06,0.27,0.13,0.4,0.19C62.65,135.67,62.51,135.61,62.38,135.55z"/>
		<path class="st3" d="M56.91,131.64c-0.09-0.08-0.17-0.17-0.26-0.25C56.74,131.47,56.83,131.55,56.91,131.64z"/>
		<path class="st3" d="M60.44,134.46c0.12,0.08,0.24,0.15,0.36,0.22C60.68,134.61,60.56,134.54,60.44,134.46z"/>
		<path class="st3" d="M57.3,132.01c0.09,0.09,0.18,0.17,0.27,0.25C57.48,132.18,57.39,132.09,57.3,132.01z"/>
		<path class="st3" d="M57.96,132.6c0.1,0.08,0.2,0.17,0.29,0.25C58.16,132.77,58.06,132.69,57.96,132.6z"/>
		<path class="st3" d="M57.63,132.31c0.09,0.09,0.19,0.17,0.28,0.25C57.82,132.48,57.72,132.39,57.63,132.31z"/>
		<path class="st3" d="M60.07,134.22c0.12,0.08,0.23,0.15,0.35,0.23C60.3,134.37,60.18,134.3,60.07,134.22z"/>
		<path class="st3" d="M56.98,131.7c0.09,0.09,0.18,0.17,0.26,0.25C57.15,131.87,57.06,131.78,56.98,131.7z"/>
		<path class="st3" d="M56.34,131.06c0.08,0.08,0.16,0.17,0.25,0.25C56.51,131.23,56.42,131.14,56.34,131.06z"/>
		<path class="st3" d="M58.99,133.45c0.11,0.08,0.22,0.16,0.32,0.24C59.21,133.61,59.1,133.53,58.99,133.45z"/>
		<path class="st3" d="M59.34,133.71c0.11,0.08,0.22,0.16,0.33,0.24C59.56,133.87,59.45,133.79,59.34,133.71z"/>
		<path class="st3" d="M58.3,132.89c0.1,0.08,0.2,0.17,0.3,0.25C58.5,133.06,58.4,132.98,58.3,132.89z"/>
		<path class="st3" d="M58.64,133.17c0.1,0.08,0.21,0.17,0.31,0.25C58.85,133.34,58.75,133.26,58.64,133.17z"/>
		<path class="st3" d="M64.7,136.73c0.14,0.02,0.19-0.18,0.06-0.23c-0.09-0.03-0.18-0.06-0.27-0.09c-2.66-0.55-4.71-1.21-5.21-1.99
			c0.5,0.78,2.55,1.45,5.21,1.99c-0.29-0.1-0.58-0.21-0.86-0.32c0,0,0,0,0,0c-0.14-0.06-0.28-0.11-0.42-0.17c0,0,0,0,0,0
			c-0.14-0.06-0.28-0.12-0.41-0.18c0,0,0,0,0,0c-0.14-0.06-0.27-0.13-0.4-0.19c0,0,0,0,0,0c-0.13-0.06-0.26-0.13-0.4-0.2
			c0,0-0.01,0-0.01,0c-0.13-0.07-0.26-0.14-0.39-0.2c0,0-0.01,0-0.01-0.01c-0.13-0.07-0.25-0.14-0.38-0.21c0,0-0.01-0.01-0.01-0.01
			c-0.12-0.07-0.25-0.14-0.37-0.22c-0.01,0-0.01-0.01-0.02-0.01c-0.12-0.07-0.24-0.15-0.36-0.22c-0.01,0-0.01-0.01-0.02-0.01
			c-0.12-0.08-0.23-0.15-0.35-0.23c-0.01-0.01-0.02-0.01-0.02-0.02c-0.11-0.08-0.23-0.16-0.34-0.23c-0.01-0.01-0.02-0.01-0.03-0.02
			c-0.11-0.08-0.22-0.16-0.33-0.24c-0.01-0.01-0.02-0.01-0.03-0.02c-0.11-0.08-0.22-0.16-0.32-0.24c-0.01-0.01-0.02-0.02-0.03-0.03
			c-0.11-0.08-0.21-0.16-0.31-0.25c-0.01-0.01-0.03-0.02-0.04-0.03c-0.1-0.08-0.2-0.16-0.3-0.25c-0.01-0.01-0.03-0.02-0.04-0.04
			c-0.1-0.08-0.2-0.17-0.29-0.25c-0.02-0.01-0.03-0.03-0.05-0.04c-0.1-0.08-0.19-0.17-0.28-0.25c-0.02-0.02-0.04-0.03-0.05-0.05
			c-0.09-0.08-0.18-0.17-0.27-0.25c-0.02-0.02-0.04-0.04-0.06-0.06c-0.09-0.08-0.18-0.17-0.26-0.25c-0.02-0.02-0.04-0.04-0.06-0.06
			c-0.09-0.08-0.17-0.17-0.26-0.25c-0.02-0.02-0.05-0.05-0.07-0.07c-0.08-0.08-0.16-0.17-0.25-0.25c-0.03-0.03-0.05-0.05-0.08-0.08
			c-0.08-0.08-0.16-0.17-0.23-0.25c-0.03-0.03-0.06-0.06-0.08-0.09c-0.07-0.08-0.15-0.16-0.22-0.24c-0.03-0.03-0.06-0.07-0.09-0.1
			c-0.07-0.08-0.14-0.16-0.21-0.24c-0.03-0.04-0.06-0.08-0.1-0.11c-0.07-0.08-0.13-0.16-0.2-0.24c-0.04-0.04-0.07-0.09-0.11-0.13
			c-0.06-0.08-0.12-0.15-0.19-0.23c-0.04-0.05-0.08-0.1-0.12-0.15c-0.06-0.07-0.11-0.14-0.17-0.21c-0.04-0.06-0.09-0.11-0.13-0.17
			c-0.05-0.07-0.1-0.13-0.16-0.2c-0.05-0.06-0.1-0.13-0.14-0.19c-0.05-0.06-0.09-0.12-0.14-0.18c-0.06-0.08-0.12-0.16-0.17-0.24
			c-0.04-0.05-0.07-0.09-0.11-0.14c-0.09-0.13-0.19-0.26-0.28-0.39l0.46,1.28l-0.46-1.28c-0.03-0.04-0.06-0.08-0.09-0.13
			c-0.07-0.1-0.24-0.04-0.21,0.09C54.15,132.7,59.47,135.83,64.7,136.73z"/>
		<path class="st4" d="M32.17,88.2c0.82,0.2,1.65,0.33,2.49,0.42c-0.93-0.19-1.84-0.43-2.75-0.7c-0.49-0.13-0.98-0.27-1.46-0.43
			C31.01,87.77,31.58,88,32.17,88.2z"/>
		<path class="st1" d="M37.54,88.79c-1.93-0.05-3.8-0.38-5.64-0.88c0.91,0.28,1.83,0.51,2.75,0.7
			C35.61,88.72,36.57,88.77,37.54,88.79z"/>
		<path class="st1" d="M29.11,87.04c0.99,0.53,2.01,0.89,3.06,1.15c-0.58-0.19-1.16-0.43-1.72-0.71C30,87.35,29.55,87.2,29.11,87.04
			z"/>
	</g>
</g>
<g id="Layer_2">
</g>
</svg>
