<?xml version="1.0" encoding="utf-8"?>
<!-- Generator: Adobe Illustrator 25.3.0, SVG Export Plug-In . SVG Version: 6.00 Build 0)  -->
<svg version="1.1" id="Layer_1" xmlns="http://www.w3.org/2000/svg" xmlns:xlink="http://www.w3.org/1999/xlink" x="0px" y="0px"
	 viewBox="0 0 200 44.44" style="enable-background:new 0 0 200 44.44;" xml:space="preserve">
<style type="text/css">
	.st0{fill:#1A1A1A;stroke:#1A1A1A;stroke-width:2;}
</style>
<path class="st0" d="M16.62,5.78V4.42h10.25v24.44c0,3.42-0.93,6.19-2.8,8.32c-1.86,2.13-4.3,3.2-7.31,3.2h-0.47
	c-2.51,0-4.81-0.89-6.91-2.68v-1.93c1.97,2.16,4.34,3.24,7.1,3.24c2.76,0,4.92-0.93,6.49-2.8c1.57-1.86,2.35-4.25,2.35-7.17V5.78
	H16.62z"/>
<g>
	<polygon class="st0" points="35.51,5.73 35.51,24.91 44.77,24.91 44.77,26.27 35.51,26.27 35.51,38.26 61.44,38.26 61.44,39.62 
		33.96,39.62 33.96,4.37 46.61,4.37 46.61,5.73 	"/>
</g>
<path class="st0" d="M80.96,40.28L65.5,4.42h1.74L81.2,36.71l6.53-15.28L80.45,4.42h1.69l6.53,15.46l6.72-15.46h1.32l-7.33,16.97
	l6.67,15.46l14.24-32.43h1.27L95.91,40.28l-7.47-17.2L80.96,40.28z"/>
<path class="st0" d="M116.9,34.78c-3.56-3.67-5.33-7.95-5.33-12.85c0-4.9,1.8-9.15,5.4-12.74c3.6-3.59,7.93-5.38,12.97-5.38
	c5.04,0,9.35,1.79,12.92,5.36s5.36,7.83,5.36,12.76c0,4.93-1.77,9.23-5.31,12.88s-7.77,5.48-12.69,5.48h-0.71
	C124.66,40.28,120.45,38.44,116.9,34.78z M146.67,22.02c0-4.62-1.64-8.58-4.91-11.89c-3.28-3.31-7.22-4.96-11.84-4.96
	c-4.62,0-8.58,1.65-11.87,4.96s-4.94,7.27-4.94,11.89c0,4.62,1.65,8.59,4.94,11.91c3.29,3.32,7.24,4.98,11.84,4.98
	c4.61,0,8.55-1.66,11.84-4.98C145.02,30.61,146.67,26.64,146.67,22.02z"/>
<path class="st0" d="M153.86,4.42h2.02c3.04,0,5.71,1.12,8.01,3.36c2.3,2.24,3.45,4.87,3.45,7.9s-1.17,5.65-3.52,7.87
	c-2.35,2.23-4.87,3.34-7.57,3.34h-0.33l12.13,12.78h-2.02l-10.67-11.19v11.19h-1.5V4.42z M155.37,25.52h0.85
	c2.54,0,4.78-0.97,6.72-2.91c1.94-1.94,2.91-4.25,2.91-6.91s-1-4.98-3.01-6.96c-2.01-1.97-4.29-2.96-6.86-2.96h-0.61V25.52z"/>
<path class="st0" d="M172.99,4.42h1.5v12.92l14.9-12.92h1.88l-16.12,14.05l20.26,21.2h-2.07l-18.8-19.6v19.6h-1.55V4.42z"/>
</svg>
